<?xml version="1.0" standalone="no"?>
<!DOCTYPE svg PUBLIC "-//W3C//DTD SVG 1.1//EN" "http://www.w3.org/Graphics/SVG/1.1/DTD/svg11.dtd" >
<svg>
<metadata>
Created by FontForge 20090914 at Fri Dec 17 12:58:17 2021
 By www-data
HTF Gotham\252 Copr. 2000 The Hoefler Type Foundry, Inc. Info: www.typography.com
</metadata>
<defs>
<font id="Gotham-Bold" horiz-adv-x="500" >
  <font-face 
    font-family="Gotham"
    font-weight="700"
    font-stretch="normal"
    units-per-em="1000"
    panose-1="2 0 8 4 4 0 0 2 0 4"
    ascent="800"
    descent="-200"
    x-height="536"
    cap-height="700"
    bbox="-71 -173.006 1195 932"
    underline-thickness="20"
    underline-position="-123"
    unicode-range="U+0020-U+FB02"
  />
<missing-glyph 
 />
    <glyph glyph-name=".notdef" 
 />
    <glyph glyph-name="space" unicode=" " horiz-adv-x="300" 
 />
    <glyph glyph-name="exclam" unicode="!" horiz-adv-x="324" 
d="M73 700v-20l47 -442h84l47 442v20h-178zM243 0v160h-162v-160h162z" />
    <glyph glyph-name="quotedbl" unicode="&#x22;" horiz-adv-x="520" 
d="M293 381h77l109 314v5h-168zM57 381h77l109 314v5h-168z" />
    <glyph glyph-name="numbersign" unicode="#" horiz-adv-x="700" 
d="M665 426v128h-76l25 146h-132l-25 -146h-145l25 146h-132l-25 -146h-110v-128h88l-25 -148h-98v-128h76l-26 -150h132l26 150h145l-26 -150h132l26 150h110v128h-88l25 148h98zM435 426l-25 -148h-145l25 148h145z" />
    <glyph glyph-name="dollar" unicode="$" horiz-adv-x="646" 
d="M596 199c0 56 -17.165 100.827 -51.498 134.494s-89.5 60.834 -165.5 81.501v151c21.333 -5.33301 42.333 -13.166 63 -23.499s41 -22.166 61 -35.499l67 117c-27.333 19.333 -56.166 35.166 -86.499 47.499s-63.5 21.166 -99.5 26.499v60h-104v-58
c-31.333 -3.33301 -60 -10.166 -86 -20.499s-48.167 -24 -66.5 -41s-32.5 -36.833 -42.5 -59.5s-15 -48 -15 -76c0 -29.333 4.5 -55.166 13.5 -77.499s22.333 -41.833 40 -58.5s40 -31.167 67 -43.5s58.5 -23.5 94.5 -33.5v-159c-30 6 -57.833 15.833 -83.5 29.5
s-52.167 30.834 -79.5 51.501l-78 -114c33.333 -25.333 70.166 -46.166 110.499 -62.499s82.166 -27.166 125.499 -32.499v-101h104v99c32 3.33301 61 10.333 87 21s48.167 24.5 66.5 41.5s32.666 36.833 42.999 59.5s15.5 48 15.5 76zM285.002 439.994
c-27.333 10 -45.667 20.6689 -55 32.002s-14 24.666 -14 39.999c0 16 5.5 29.667 16.5 41s28.5 18.666 52.5 21.999v-135zM450.001 190.996c0 -36 -23.667 -57.668 -71 -65.001v140c27.333 -10 46 -20.667 56 -32s15 -25.666 15 -42.999z" />
    <glyph glyph-name="percent" unicode="%" horiz-adv-x="860" 
d="M385 530c0 24.667 -4 47.834 -12 69.501s-19.5 40.5 -34.5 56.5s-32.833 28.667 -53.5 38s-43.667 14 -69 14s-48.5 -4.66699 -69.5 -14s-39 -22.166 -54 -38.499s-26.667 -35.5 -35 -57.5s-12.5 -45.333 -12.5 -70s4 -47.834 12 -69.501s19.5 -40.5 34.5 -56.5
s32.833 -28.667 53.5 -38s43.667 -14 69 -14s48.5 4.66699 69.5 14s39 22.166 54 38.499s26.667 35.333 35 57s12.5 45.167 12.5 70.5zM745 700h-119l-511 -700h119zM815 172c0 24.667 -4 47.834 -12 69.501s-19.5 40.5 -34.5 56.5s-32.833 28.667 -53.5 38
s-43.667 14 -69 14s-48.5 -4.66699 -69.5 -14s-39 -22.166 -54 -38.499s-26.667 -35.5 -35 -57.5s-12.5 -45.333 -12.5 -70s4 -47.834 12 -69.501s19.5 -40.5 34.5 -56.5s32.833 -28.667 53.5 -38s43.667 -14 69 -14s48.5 4.66699 69.5 14s39 22.166 54 38.499
s26.667 35.333 35 57s12.5 45.167 12.5 70.5zM280 528c0 -23.333 -5.33301 -43.666 -16 -60.999s-26.667 -26 -48 -26c-20 0 -36 8.83301 -48 26.5s-18 38.5 -18 62.5c0 23.333 5.33301 43.666 16 60.999s26.667 26 48 26c20 0 36 -8.83301 48 -26.5s18 -38.5 18 -62.5z
M710 170c0 -23.333 -5.33301 -43.666 -16 -60.999s-26.667 -26 -48 -26c-20 0 -36 8.83301 -48 26.5s-18 38.5 -18 62.5c0 23.333 5.33301 43.666 16 60.999s26.667 26 48 26c20 0 36 -8.83301 48 -26.5s18 -38.5 18 -62.5z" />
    <glyph glyph-name="ampersand" unicode="&#x26;" horiz-adv-x="696" 
d="M668 65l-103.001 103.002c17.333 23.333 33.666 47.666 48.999 72.999s29.666 50.333 42.999 75l-113 62l-34 -62.5c-11.333 -20.333 -22.666 -39.5 -33.999 -57.5l-93 93c43.333 16.667 78.666 39.667 105.999 69s41 67.666 41 114.999
c0 24.667 -4.66699 47.834 -14 69.501s-22.666 40.5 -39.999 56.5s-38 28.5 -62 37.5s-51 13.5 -81 13.5c-34 0 -64.167 -5.16699 -90.5 -15.5s-48.5 -24 -66.5 -41s-31.667 -36.667 -41 -59s-14 -45.5 -14 -69.5c0 -24.667 3.83301 -48.167 11.5 -70.5
s20.167 -45.833 37.5 -70.5c-44 -20 -77.667 -45.833 -101 -77.5s-35 -70.167 -35 -115.5c0 -31.333 6 -59.5 18 -84.5s28.5 -46.333 49.5 -64s45.833 -31.167 74.5 -40.5s59.667 -14 93 -14c40.667 0 77.834 7.16699 111.501 21.5s64.834 33.166 93.501 56.499l81 -82z
M395.999 526.002c0 -22.667 -7.83105 -41.168 -23.498 -55.501s-38.834 -27.166 -69.501 -38.499c-14.667 16.667 -25.167 31.5 -31.5 44.5s-9.5 27.5 -9.5 43.5c0 21.333 6.16699 38.666 18.5 51.999s28.833 20 49.5 20c19.333 0 35.166 -5.66699 47.499 -17
s18.5 -27.666 18.5 -48.999zM388.001 156.001c-16 -12.667 -32.5 -22.499 -49.5 -29.499s-34.167 -10.5 -51.5 -10.5c-28.667 0 -52.167 7.5 -70.5 22.5s-27.5 35.167 -27.5 60.5c0 17.333 5 34.166 15 50.499s26.667 30.5 50 42.5z" />
    <glyph glyph-name="quotesingle" unicode="'" horiz-adv-x="286" 
d="M57 381h79l109 314v5h-170z" />
    <glyph glyph-name="parenleft" unicode="(" horiz-adv-x="445" 
d="M403 614l-67 101c-92.667 -50 -162 -109.667 -208 -179s-69 -152.333 -69 -249s23 -179.667 69 -249s115.333 -129 208 -179l67 101c-34 23.333 -63.167 47 -87.5 71s-44.333 49 -60 75s-27.167 53.833 -34.5 83.5s-11 62.167 -11 97.5s3.66699 67.833 11 97.5
s18.833 57.5 34.5 83.5s35.667 51 60 75s53.5 47.667 87.5 71z" />
    <glyph glyph-name="parenright" unicode=")" horiz-adv-x="445" 
d="M386 287c0 96.667 -23 179.667 -69 249s-115.333 129 -208 179l-67 -101c34 -23.333 63.167 -47 87.5 -71s44.333 -49 60 -75s27.167 -53.833 34.5 -83.5s11 -62.167 11 -97.5s-3.66699 -67.833 -11 -97.5s-18.833 -57.5 -34.5 -83.5s-35.667 -51 -60 -75
s-53.5 -47.667 -87.5 -71l67 -101c92.667 50 162 109.667 208 179s69 152.333 69 249z" />
    <glyph glyph-name="asterisk" unicode="*" horiz-adv-x="430" 
d="M379 490l-112 47l112 47l-42 72l-97 -74l16 120h-82l16 -120l-97 74l-42 -72l112 -47l-112 -47l42 -72l97 74l-16 -120h82l-16 120l97 -74z" />
    <glyph glyph-name="plus" unicode="+" horiz-adv-x="640" 
d="M249 421h-181v-138h181v-180h142v180h181v138h-181v180h-142v-180z" />
    <glyph glyph-name="comma" unicode="," horiz-adv-x="286" 
d="M26 -99l13.001 -63c59.333 0.666992 105 15.5 137 44.5s48 76.5 48 142.5v135h-162v-160h62c5.33301 -58.667 -27.334 -91.667 -98.001 -99z" />
    <glyph glyph-name="hyphen" unicode="-" horiz-adv-x="408" 
d="M358 237v146h-308v-146h308z" />
    <glyph glyph-name="period" unicode="." horiz-adv-x="286" 
d="M224 0v160h-162v-160h162z" />
    <glyph glyph-name="slash" unicode="/" horiz-adv-x="530" 
d="M415 798l-443 -926h129l443 926h-129z" />
    <glyph glyph-name="zero" unicode="0" horiz-adv-x="730" 
d="M676 351c0 50.667 -7.33301 98.001 -22 142.001s-35.5 82.333 -62.5 115s-59.667 58.167 -98 76.5s-80.833 27.5 -127.5 27.5s-89.167 -9.33301 -127.5 -28s-71.166 -44.334 -98.499 -77.001s-48.5 -71.167 -63.5 -115.5s-22.5 -91.833 -22.5 -142.5
c0 -51.333 7.33301 -98.833 22 -142.5s35.5 -81.834 62.5 -114.501s59.667 -58.167 98 -76.5s80.833 -27.5 127.5 -27.5s89.167 9.33301 127.5 28s71.166 44.334 98.499 77.001s48.5 71 63.5 115s22.5 91.667 22.5 143zM518 349.001c0 -32 -3.5 -61.5 -10.5 -88.5
s-17.167 -50.5 -30.5 -70.5s-29.333 -35.5 -48 -46.5s-39.667 -16.5 -63 -16.5s-44.5 5.66699 -63.5 17s-35.167 27 -48.5 47s-23.666 43.667 -30.999 71s-11 57 -11 89s3.5 61.667 10.5 89s17.167 50.833 30.5 70.5s29.333 35 48 46s39.667 16.5 63 16.5
s44.5 -5.66699 63.5 -17s35.167 -27 48.5 -47s23.666 -43.667 30.999 -71s11 -57 11 -89z" />
    <glyph glyph-name="one" unicode="1" horiz-adv-x="422" 
d="M24 645l32 -126l122 30v-549h152v705h-105z" />
    <glyph glyph-name="two" unicode="2" horiz-adv-x="623" 
d="M309 572c28 0 50.667 -7.66895 68 -23.002s26 -38 26 -68c0 -14.667 -2.16699 -28.167 -6.5 -40.5s-11.333 -25 -21 -38s-22.167 -26.667 -37.5 -41s-34 -30.5 -56 -48.5l-233 -191v-122h518v133h-305l114 88c30.667 24 57.667 46.167 81 66.5s42.5 40.833 57.5 61.5
s26.333 42.5 34 65.5s11.5 49.167 11.5 78.5c0 32.667 -5.5 62.334 -16.5 89.001s-27 49.5 -48 68.5s-46.333 33.667 -76 44s-63.167 15.5 -100.5 15.5c-31.333 0 -59.333 -3.16699 -84 -9.5s-47.167 -15.666 -67.5 -27.999s-39.333 -27.5 -57 -45.5
s-35.167 -38.667 -52.5 -62l108 -87c26 32 49.5 55.667 70.5 71s45.167 23 72.5 23z" />
    <glyph glyph-name="three" unicode="3" horiz-adv-x="621" 
d="M354 568l-167.001 -168.001l24 -98h64c44 0 77.833 -7.66699 101.5 -23s35.5 -37.666 35.5 -66.999c0 -26.667 -9.16699 -47.667 -27.5 -63s-42.166 -23 -71.499 -23c-36 0 -67.167 7.16699 -93.5 21.5s-51.5 35.166 -75.5 62.499l-106 -101
c30 -36 67.167 -65.167 111.5 -87.5s98.166 -33.5 161.499 -33.5c38.667 0 73.667 5.66699 105 17s57.833 27.333 79.5 48s38.334 45 50.001 73s17.5 58.667 17.5 92c0 32.667 -5.33301 60.5 -16 83.5s-24.667 42.333 -42 58s-37.333 27.834 -60 36.501s-46 15 -70 19
l177 169v116h-473v-132h275z" />
    <glyph glyph-name="four" unicode="4" horiz-adv-x="689" 
d="M415 705l-384 -445l25 -109h342v-151h147v151h94v125h-94v429h-130zM398 276h-186l186 218v-218z" />
    <glyph glyph-name="five" unicode="5" horiz-adv-x="630" 
d="M90 355l89.001 -58.999c16.667 7.33301 34.834 13.5 54.501 18.5s40.5 7.5 62.5 7.5c38 0 68.167 -8.33301 90.5 -25s33.5 -40.334 33.5 -71.001c0 -32 -10.5 -56.333 -31.5 -73s-49.5 -25 -85.5 -25c-31.333 0 -60.333 6.66699 -87 20s-53.334 32 -80.001 56l-93 -111
c34 -32.667 72 -58.334 114 -77.001s91.333 -28 148 -28c40 0 76.5 5.66699 109.5 17s61 27.5 84 48.5s40.833 46.5 53.5 76.5s19 63.667 19 101c0 40 -6.33301 74.167 -19 102.5s-30 51.5 -52 69.5s-47.833 31.333 -77.5 40s-61.834 13 -96.501 13
c-19.333 0 -36 -1.16699 -50 -3.5s-28 -5.16602 -42 -8.49902l8 121h298v135h-430z" />
    <glyph glyph-name="six" unicode="6" horiz-adv-x="662" 
d="M580 635c-15.333 12 -31.0068 22.8311 -47.0068 32.498s-32.667 17.834 -50 24.501s-36 11.667 -56 15s-42 5 -66 5c-52 0 -97.333 -9.83301 -136 -29.5s-70.667 -46.667 -96 -81s-44.166 -74.833 -56.499 -121.5s-18.5 -97 -18.5 -151c0 -70 7.5 -125.5 22.5 -166.5
s35.167 -74.167 60.5 -99.5c24.667 -24.667 53 -43.334 85 -56.001s71 -19 117 -19c38 0 73.333 5.83301 106 17.5s60.834 28.334 84.501 50.001s42.334 47.334 56.001 77.001s20.5 62.5 20.5 98.5c0 36.667 -6.33301 69 -19 97s-30 51.333 -52 70s-48 32.834 -78 42.501
s-62.333 14.5 -97 14.5s-63.167 -4.66699 -85.5 -14s-42.166 -19.666 -59.499 -30.999c2.66699 22.667 7.33398 44 14.001 64s15.834 37.167 27.501 51.5s25.667 25.666 42 33.999s35.5 12.5 57.5 12.5c14.667 0 28.334 -1.33301 41.001 -4s24.667 -6.33398 36 -11.001
s22.333 -10.5 33 -17.5s21.667 -14.833 33 -23.5zM452.993 223.998c0 -30.667 -10.5 -55.668 -31.5 -75.001s-50.5 -29 -88.5 -29s-67.833 9.83301 -89.5 29.5s-32.5 44.834 -32.5 75.501c0 30 10.5 54.5 31.5 73.5s50.5 28.5 88.5 28.5s67.833 -9.66699 89.5 -29
s32.5 -44 32.5 -74z" />
    <glyph glyph-name="seven" unicode="7" horiz-adv-x="619" 
d="M68 567h329l-313 -567h174l314 584v116h-504v-133z" />
    <glyph glyph-name="eight" unicode="8" horiz-adv-x="630" 
d="M585 197c0 42 -9.83105 75.4971 -29.498 100.497s-47.5 46.833 -83.5 65.5c27.333 16.667 49 37 65 61s24 55 24 93c0 26.667 -5.83301 51.834 -17.5 75.501s-28.334 44.167 -50.001 61.5s-47.667 31 -78 41s-63.833 15 -100.5 15c-37.333 0 -71 -5 -101 -15
s-55.833 -23.667 -77.5 -41s-38.334 -37.833 -50.001 -61.5s-17.5 -48.834 -17.5 -75.501c0 -38 8 -69 24 -93s37.667 -44.333 65 -61c-37.333 -17.333 -65.5 -39.166 -84.5 -65.499s-28.5 -61.166 -28.5 -104.499c0 -30.667 6.83301 -58.5 20.5 -83.5
s32.5 -46.333 56.5 -64s52.5 -31.334 85.5 -41.001s68.833 -14.5 107.5 -14.5s74.5 4.66699 107.5 14s61.5 22.833 85.5 40.5s42.833 39.334 56.5 65.001s20.5 54.834 20.5 87.501zM415.002 499.997c0 -25.333 -9 -45.999 -27 -61.999s-42.333 -24 -73 -24
s-55 8.16699 -73 24.5s-27 37.166 -27 62.499c0 22 8.66699 41.167 26 57.5s42 24.5 74 24.5s56.667 -8.33301 74 -25s26 -36 26 -58zM436.002 204.998c0 -25.333 -10.667 -46.333 -32 -63s-51 -25 -89 -25s-67.667 8.33301 -89 25s-32 37.667 -32 63
c0 28 11.333 49.5 34 64.5s51.667 22.5 87 22.5s64.333 -7.5 87 -22.5s34 -36.5 34 -64.5z" />
    <glyph glyph-name="nine" unicode="9" horiz-adv-x="662" 
d="M608 371c0 34.667 -2 65.6641 -6 92.9971s-9.66699 51.666 -17 72.999s-16 40 -26 56s-21.333 30.333 -34 43c-13.333 13.333 -27 24.833 -41 34.5s-29 17.5 -45 23.5s-33.5 10.5 -52.5 13.5s-40.167 4.5 -63.5 4.5c-39.333 0 -75.5 -6.16699 -108.5 -18.5
s-61.167 -29.5 -84.5 -51.5s-41.5 -48 -54.5 -78s-19.5 -62.667 -19.5 -98c0 -36 5.83301 -68 17.5 -96s28.5 -51.667 50.5 -71s48.333 -34.166 79 -44.499s65 -15.5 103 -15.5c30.667 0 57.667 4.33301 81 13s43.666 20.334 60.999 35.001
c-5.33301 -47.333 -19.5 -85.666 -42.5 -114.999s-56.167 -44 -99.5 -44c-30 0 -56.667 4.83301 -80 14.5s-47.666 24.834 -72.999 45.501l-81 -117c30 -24.667 63 -44.667 99 -60s79.667 -23 131 -23c50 0 94 9.33301 132 28s69.833 44.667 95.5 78s45.167 73.5 58.5 120.5
s20 99.167 20 156.5zM451 471.997c0 -30.667 -10.501 -55.833 -31.501 -75.5s-50.5 -29.5 -88.5 -29.5s-67.833 9.66699 -89.5 29s-32.5 45 -32.5 77s10.333 57.833 31 77.5s50 29.5 88 29.5c38.667 0 68.834 -10 90.501 -30s32.5 -46 32.5 -78z" />
    <glyph glyph-name="colon" unicode=":" horiz-adv-x="296" 
d="M229 376v160h-162v-160h162zM229 0v160h-162v-160h162z" />
    <glyph glyph-name="semicolon" unicode=";" horiz-adv-x="296" 
d="M229 376v160h-162v-160h162zM31 -99l13.001 -63c59.333 0.666992 105 15.5 137 44.5s48 76.5 48 142.5v135h-162v-160h62c5.33301 -58.667 -27.334 -91.667 -98.001 -99z" />
    <glyph glyph-name="less" unicode="&#x3c;" horiz-adv-x="640" 
d="M68 421v-138l484 -212v143l-338 139l338 139v141z" />
    <glyph glyph-name="equal" unicode="=" horiz-adv-x="640" 
d="M83 551v-138h474v138h-474zM83 291v-138h474v138h-474z" />
    <glyph glyph-name="greater" unicode="&#x3e;" horiz-adv-x="640" 
d="M572 283v138l-484 212v-143l338 -139l-338 -139v-141z" />
    <glyph glyph-name="question" unicode="?" horiz-adv-x="544" 
d="M179 405l-4.99805 -4.99902l23 -162h102l11 61c27.333 5.33301 53 12.833 77 22.5s44.833 22.5 62.5 38.5s31.667 35.5 42 58.5s15.5 50.5 15.5 82.5c0 33.333 -5.83301 63 -17.5 89s-28.167 47.833 -49.5 65.5s-46.833 31 -76.5 40s-62.5 13.5 -98.5 13.5
c-54.667 0 -101.834 -10 -141.501 -30s-74.167 -46 -103.5 -78l92 -101c23.333 23.333 47.166 40.666 71.499 51.999s50.5 17 78.5 17c29.333 0 52 -6.16699 68 -18.5s24 -30.166 24 -53.499c0 -27.333 -13.333 -48.833 -40 -64.5s-71.667 -24.834 -135 -27.501z
M326.002 0.000976562v160h-162v-160h162z" />
    <glyph glyph-name="at" unicode="@" horiz-adv-x="980" 
d="M927 316c0 51.333 -11.166 100.834 -33.499 148.501s-53.166 89.834 -92.499 126.501s-85.5 66 -138.5 88s-110.167 33 -171.5 33s-118.666 -11.667 -171.999 -35s-99.666 -54.833 -138.999 -94.5s-70.333 -86 -93 -139s-34 -109.5 -34 -169.5s11.167 -116.333 33.5 -169
s53.5 -98.834 93.5 -138.501s87.167 -71 141.5 -94s113.5 -34.5 177.5 -34.5c52 0 99.5 6.66699 142.5 20s83.833 31.666 122.5 54.999l-20 32c-38 -22 -75.833 -38.667 -113.5 -50s-81.5 -17 -131.5 -17c-59.333 0 -113.666 10.333 -162.999 31
s-91.833 48.834 -127.5 84.501s-63.5 77.5 -83.5 125.5s-30 99.667 -30 155c0 54.667 10 106.167 30 154.5s47.667 90.5 83 126.5s77.166 64.5 125.499 85.5s100.833 31.5 157.5 31.5c56 0 108.167 -9.83301 156.5 -29.5s90 -46 125 -79s62.5 -71 82.5 -114
s30 -87.5 30 -133.5c0 -33.333 -3.33301 -62.666 -10 -87.999s-15.667 -46.666 -27 -63.999s-24.666 -30.333 -39.999 -39s-32 -13 -50 -13c-23.333 0 -41.333 6 -54 18s-19 27 -19 45c0 4 0.166992 8.83301 0.5 14.5s1.16602 11.167 2.49902 16.5l47 269l-118 19l-11 -53
c-14 19.333 -31.833 35.5 -53.5 48.5s-49.834 19.5 -84.501 19.5c-29.333 0 -57.5 -6.5 -84.5 -19.5s-50.833 -30.667 -71.5 -53s-37.167 -48.833 -49.5 -79.5s-18.5 -63.667 -18.5 -99c0 -30 4.66699 -56.833 14 -80.5s22.333 -43.834 39 -60.501s36.167 -29.5 58.5 -38.5
s46.166 -13.5 71.499 -13.5c32.667 0 61.167 6.16699 85.5 18.5s45.166 26.166 62.499 41.499c12.667 -14.667 31.167 -28.334 55.5 -41.001s56.833 -19 97.5 -19c27.333 0 53.166 5.16699 77.499 15.5s45.5 26 63.5 47s32.167 47.167 42.5 78.5s15.5 68 15.5 110z
M581.001 312.001c0 -20.667 -3.16602 -39.665 -9.49902 -56.998s-15 -32.5 -26 -45.5s-23.667 -23.167 -38 -30.5s-29.5 -11 -45.5 -11c-28 0 -50.667 8.33301 -68 25s-26 40.667 -26 72c0 20 3.16699 38.667 9.5 56s15 32.166 26 44.499s23.833 22.166 38.5 29.499
s30 11 46 11c27.333 0 49.666 -8.5 66.999 -25.5s26 -39.833 26 -68.5z" />
    <glyph glyph-name="A" unicode="A" horiz-adv-x="790" 
d="M766 0l-300 705h-142l-300 -705h157l64 157h296l64 -157h161zM486 293h-186l93 227z" />
    <glyph glyph-name="B" unicode="B" horiz-adv-x="722" 
d="M679 192l0.000976562 2.00293c0 46.667 -11.667 83.167 -35 109.5s-55.333 47.166 -96 62.499c12.667 6.66699 24.5 14.667 35.5 24s20.667 20.166 29 32.499s15 26.166 20 41.499s7.5 33 7.5 53v2c0 55.333 -20.5 99.333 -61.5 132s-97.5 49 -169.5 49h-325v-700h333
c39.333 0 75.166 4 107.499 12s60 20 83 36s40.667 36 53 60s18.5 52 18.5 84zM487.001 491.003c0 -26 -10 -44.834 -30 -56.501s-47 -17.5 -81 -17.5h-142v148h152c32.667 0 57.667 -6.16699 75 -18.5s26 -30.166 26 -53.499v-2zM526.001 211.002
c0 -26 -9.66699 -45.167 -29 -57.5s-46 -18.5 -80 -18.5h-183v154h178c40 0 69 -6.83301 87 -20.5s27 -32.167 27 -55.5v-2z" />
    <glyph glyph-name="C" unicode="C" horiz-adv-x="738" 
d="M699 113l-97.998 99.0029c-27.333 -25.333 -54.833 -45.333 -82.5 -60s-61.5 -22 -101.5 -22c-30 0 -57.5 5.83301 -82.5 17.5s-46.333 27.5 -64 47.5s-31.5 43.333 -41.5 70s-15 55 -15 85v2c0 30 5 58.167 15 84.5s24 49.5 42 69.5s39.5 35.667 64.5 47
s52.167 17 81.5 17c35.333 0 67.166 -7 95.499 -21s56.166 -33.333 83.499 -58l98 113c-16 16 -33.333 30.667 -52 44s-39 24.666 -61 33.999s-46.5 16.666 -73.5 21.999s-56.833 8 -89.5 8c-54 0 -103.333 -9.5 -148 -28.5s-83 -45 -115 -78s-57 -71.333 -75 -115
s-27 -90.5 -27 -140.5v-2c0 -50 9 -97 27 -141s43 -82.167 75 -114.5s70 -57.833 114 -76.5s91.667 -28 143 -28c34 0 64.667 2.83301 92 8.5s52.5 14 75.5 25s44.167 24.167 63.5 39.5s38 32.666 56 51.999z" />
    <glyph glyph-name="D" unicode="D" horiz-adv-x="782" 
d="M729 350v2.00195c0 49.333 -9 95.166 -27 137.499s-43.5 79.166 -76.5 110.499s-72.333 55.833 -118 73.5s-95.834 26.5 -150.501 26.5h-273v-700h273c54.667 0 104.834 9 150.501 27s85 42.667 118 74s58.5 68.333 76.5 111s27 88.667 27 138zM568 348.002
c0 -31.333 -5.16699 -59.667 -15.5 -85s-24.666 -47.333 -42.999 -66s-40.5 -33 -66.5 -43s-54.667 -15 -86 -15h-119v422h119c31.333 0 60 -5.16699 86 -15.5s48.167 -24.833 66.5 -43.5s32.666 -41 42.999 -67s15.5 -54.333 15.5 -85v-2z" />
    <glyph glyph-name="E" unicode="E" horiz-adv-x="670" 
d="M617 0v137h-380v147h330v137h-330v142h375v137h-528v-700h533z" />
    <glyph glyph-name="F" unicode="F" horiz-adv-x="656" 
d="M617 560v140h-533v-700h154v271h334v140h-334v149h379z" />
    <glyph glyph-name="G" unicode="G" horiz-adv-x="784" 
d="M720 99l0.00390625 303.998h-304v-133h155v-100c-39.333 -28 -87.666 -42 -144.999 -42c-31.333 0 -59.833 5.5 -85.5 16.5s-48 26.5 -67 46.5s-33.667 43.5 -44 70.5s-15.5 56.5 -15.5 88.5v2c0 30 5.16699 58.167 15.5 84.5s24.666 49.333 42.999 69
s39.666 35.334 63.999 47.001s50.5 17.5 78.5 17.5c20 0 38.333 -1.66699 55 -5s32.167 -8 46.5 -14s28.166 -13.333 41.499 -22s26.666 -18.667 39.999 -30l97 117c-18 15.333 -36.667 29 -56 41s-40 22 -62 30s-45.833 14.167 -71.5 18.5s-54.167 6.5 -85.5 6.5
c-53.333 0 -102.333 -9.5 -147 -28.5s-83.334 -45 -116.001 -78s-58.167 -71.333 -76.5 -115s-27.5 -90.5 -27.5 -140.5v-2c0 -52 9 -100 27 -144s43.167 -82 75.5 -114s71 -57 116 -75s94.833 -27 149.5 -27c64 0 120.833 10.833 170.5 32.5s92.5 47.834 128.5 78.501z" />
    <glyph glyph-name="H" unicode="H" horiz-adv-x="760" 
d="M676 0v700h-154v-277h-284v277h-154v-700h154v281h284v-281h154z" />
    <glyph glyph-name="I" unicode="I" horiz-adv-x="336" 
d="M245 0v700h-154v-700h154z" />
    <glyph glyph-name="J" unicode="J" horiz-adv-x="564" 
d="M491 242l-0.00195312 458.001h-158v-451c0 -40.667 -8.33301 -70.167 -25 -88.5s-39.667 -27.5 -69 -27.5c-24.667 0 -47.167 6.16699 -67.5 18.5s-40.5 29.5 -60.5 51.5l-97 -108c24 -28.667 54.5 -53.334 91.5 -74.001s82.833 -31 137.5 -31
c36.667 0 70.334 5.16699 101.001 15.5s56.834 26 78.501 47s38.5 47.167 50.5 78.5s18 68.333 18 111z" />
    <glyph glyph-name="K" unicode="K" horiz-adv-x="730" 
d="M721 0l-298 403l285 297h-186l-284 -306v306h-154v-700h154v214l81 84l217 -298h185z" />
    <glyph glyph-name="L" unicode="L" horiz-adv-x="619" 
d="M587 0v140h-349v560h-154v-700h503z" />
    <glyph glyph-name="M" unicode="M" horiz-adv-x="868" 
d="M784 0v700h-166l-184 -296l-184 296h-166v-700h151v454l195 -296h4l197 299v-457h153z" />
    <glyph glyph-name="N" unicode="N" horiz-adv-x="790" 
d="M706 0v700h-152v-431l-328 431h-142v-700h152v445l339 -445h131z" />
    <glyph glyph-name="O" unicode="O" horiz-adv-x="850" 
d="M797 350v2c0 50 -9.16699 96.833 -27.5 140.5s-44 81.667 -77 114s-72.167 58 -117.5 77s-95 28.5 -149 28.5s-103.833 -9.5 -149.5 -28.5s-85 -45 -118 -78s-58.833 -71.333 -77.5 -115s-28 -90.5 -28 -140.5v-2c0 -50 9.16699 -96.833 27.5 -140.5s44 -81.667 77 -114
s72.167 -58 117.5 -77s95 -28.5 149 -28.5s103.833 9.5 149.5 28.5s85 45 118 78s58.833 71.333 77.5 115s28 90.5 28 140.5zM636 348c0 -30 -5.16699 -58.167 -15.5 -84.5s-24.666 -49.5 -42.999 -69.5s-40.5 -35.667 -66.5 -47s-54.333 -17 -85 -17
c-31.333 0 -59.833 5.83301 -85.5 17.5s-48 27.5 -67 47.5s-33.667 43.333 -44 70s-15.5 55 -15.5 85v2c0 30 5.16699 58.167 15.5 84.5s24.666 49.5 42.999 69.5s40.333 35.667 66 47s54.167 17 85.5 17c30.667 0 59 -5.83301 85 -17.5s48.5 -27.5 67.5 -47.5
s33.667 -43.333 44 -70s15.5 -55 15.5 -85v-2z" />
    <glyph glyph-name="P" unicode="P" horiz-adv-x="668" 
d="M638 456v1.99805c0 36 -6.16699 68.833 -18.5 98.5s-30 55.167 -53 76.5s-51 37.833 -84 49.5s-70.5 17.5 -112.5 17.5h-286v-700h154v210h117c39.333 0 76.166 5.16699 110.499 15.5s64.333 25.833 90 46.5s45.834 46.334 60.501 77.001s22 66.334 22 107.001z
M482 452.998c0 -30 -10.667 -55.167 -32 -75.5s-51.333 -30.5 -90 -30.5h-122v214h119c38.667 0 69.167 -9 91.5 -27s33.5 -44.333 33.5 -79v-2z" />
    <glyph glyph-name="Q" unicode="Q" horiz-adv-x="850" 
d="M807 88l-72 61.001c20 29.333 35.333 61 46 95s16 69.333 16 106v2c0 50 -9.16699 96.833 -27.5 140.5s-44 81.667 -77 114s-72.167 58 -117.5 77s-95 28.5 -149 28.5s-103.833 -9.5 -149.5 -28.5s-85 -45 -118 -78s-58.833 -71.333 -77.5 -115s-28 -90.5 -28 -140.5v-2
c0 -50 9.16699 -96.833 27.5 -140.5s44 -81.667 77 -114s72.167 -58 117.5 -77s95 -28.5 149 -28.5c39.333 0 76.333 5.16699 111 15.5s67 25.166 97 44.499l77 -69zM636 348.001c0 -36 -6.33105 -68 -18.998 -96l-115 104l-98 -110l114 -97
c-28.667 -12.667 -59.334 -19 -92.001 -19c-31.333 0 -59.833 5.83301 -85.5 17.5s-48 27.5 -67 47.5s-33.667 43.333 -44 70s-15.5 55 -15.5 85v2c0 30 5.16699 58.167 15.5 84.5s24.666 49.5 42.999 69.5s40.333 35.667 66 47s54.167 17 85.5 17
c30.667 0 59 -5.83301 85 -17.5s48.5 -27.5 67.5 -47.5s33.667 -43.333 44 -70s15.5 -55 15.5 -85v-2z" />
    <glyph glyph-name="R" unicode="R" horiz-adv-x="723" 
d="M689 0l-171.002 249.997c44.667 16.667 80.834 42.834 108.501 78.501s41.5 81.834 41.5 138.501v2c0 72.667 -23.167 129.334 -69.5 170.001s-111.166 61 -194.499 61h-320v-700h154v224h121l150 -224h180zM511.998 458.997c0 -30 -10.167 -54 -30.5 -72
s-49.5 -27 -87.5 -27h-156v201h153c38 0 67.667 -8.33301 89 -25s32 -41.667 32 -75v-2z" />
    <glyph glyph-name="S" unicode="S" horiz-adv-x="640" 
d="M590 207l0.000976562 2.00586c0 30.667 -4.83301 57 -14.5 79s-24 41.167 -43 57.5s-42.333 30.333 -70 42s-59.167 22.167 -94.5 31.5c-30 8 -54.833 15 -74.5 21s-35.167 12.333 -46.5 19s-19.166 14.167 -23.499 22.5s-6.5 18.166 -6.5 29.499v2
c0 17.333 7.5 31.833 22.5 43.5s37.5 17.5 67.5 17.5s60 -6.16699 90 -18.5s60.667 -29.166 92 -50.499l80 116c-36 28.667 -75.5 50.667 -118.5 66s-90.167 23 -141.5 23c-36 0 -69 -5 -99 -15s-55.833 -24.333 -77.5 -43s-38.5 -40.834 -50.5 -66.501s-18 -54.5 -18 -86.5
v-2c0 -34.667 5.5 -63.667 16.5 -87s26.5 -42.833 46.5 -58.5s44.333 -28.834 73 -39.501s60.667 -20.334 96 -29.001c29.333 -7.33301 53.166 -14.333 71.499 -21s32.666 -13.334 42.999 -20.001s17.333 -13.834 21 -21.501s5.5 -16.5 5.5 -26.5v-2
c0 -20.667 -8.83301 -36.834 -26.5 -48.501s-42.5 -17.5 -74.5 -17.5c-40 0 -76.833 7.66699 -110.5 23s-66.5 36 -98.5 62l-91 -109c42 -38 88.667 -66.167 140 -84.5s103.666 -27.5 156.999 -27.5c38 0 72.667 4.83301 104 14.5s58.333 23.667 81 42s40.334 41 53.001 68
s19 57.833 19 92.5z" />
    <glyph glyph-name="T" unicode="T" horiz-adv-x="648" 
d="M614 558v142h-580v-142h213v-558h154v558h213z" />
    <glyph glyph-name="U" unicode="U" horiz-adv-x="756" 
d="M683 305v395.002h-154v-401c0 -56 -13.333 -98 -40 -126s-63.667 -42 -111 -42s-84.333 14.5 -111 43.5s-40 72.167 -40 129.5v396h-154v-400c0 -103.333 27 -181 81 -233s128 -78 222 -78c46.667 0 89 6.5 127 19.5s70.333 32.667 97 59s47.167 59.166 61.5 98.499
s21.5 85.666 21.5 138.999z" />
    <glyph glyph-name="V" unicode="V" horiz-adv-x="750" 
d="M726 700h-166l-183 -493l-183 493h-170l283 -705h136z" />
    <glyph glyph-name="W" unicode="W" horiz-adv-x="1122" 
d="M1092 700h-161l-145 -474l-157 476h-132l-157 -476l-145 474h-165l239 -705h134l158 458l158 -458h134z" />
    <glyph glyph-name="X" unicode="X" horiz-adv-x="732" 
d="M701 0l-244 358l234 342h-175l-148 -227l-147 227h-180l234 -344l-244 -356h175l158 240l157 -240h180z" />
    <glyph glyph-name="Y" unicode="Y" horiz-adv-x="716" 
d="M704 700h-175l-170 -281l-167 281h-180l269 -424v-276h154v279z" />
    <glyph glyph-name="Z" unicode="Z" horiz-adv-x="708" 
d="M646 0v135h-385l385 448v117h-571v-135h373l-385 -448v-117h583z" />
    <glyph glyph-name="bracketleft" unicode="[" horiz-adv-x="465" 
d="M406 700h-323v-830h323v119h-177v592h177v119z" />
    <glyph glyph-name="backslash" unicode="\" horiz-adv-x="530" 
d="M115 798h-129l443 -926h129z" />
    <glyph glyph-name="bracketright" unicode="]" horiz-adv-x="465" 
d="M59 700v-119h177v-592h-177v-119h323v830h-323z" />
    <glyph glyph-name="asciicircum" unicode="^" 
d="M249 610l91 -117h110l-148 207h-104l-148 -207h108z" />
    <glyph glyph-name="underscore" unicode="_" horiz-adv-x="600" 
d="M-2 -44v-116h604v116h-604z" />
    <glyph glyph-name="grave" unicode="`" 
d="M354 595l-113 177l-131 -57l128 -120h116z" />
    <glyph glyph-name="a" unicode="a" horiz-adv-x="592" 
d="M529 0l-0.000976562 310.998c0 72.667 -19 129.334 -57 170.001s-98.667 61 -182 61c-45.333 0 -84 -4 -116 -12s-62.667 -18.333 -92 -31l38 -116c24.667 9.33301 48.167 16.5 70.5 21.5s48.166 7.5 77.499 7.5c38 0 66.667 -8.33301 86 -25s29 -41 29 -73v-9
c-19.333 6.66699 -39.166 12 -59.499 16s-44.166 6 -71.499 6c-32 0 -61.167 -3.5 -87.5 -10.5s-49 -17.5 -68 -31.5s-33.833 -31.667 -44.5 -53s-16 -46.666 -16 -75.999v-2c0 -26.667 4.83301 -50.167 14.5 -70.5s22.834 -37.5 39.501 -51.5s36.167 -24.5 58.5 -31.5
s46.166 -10.5 71.499 -10.5c37.333 0 69 6.16699 95 18.5s48.333 28.833 67 49.5v-58h147zM384.999 188.998c0 -28 -10.833 -50.667 -32.5 -68s-50.5 -26 -86.5 -26c-24.667 0 -44.667 5.66699 -60 17s-23 27.333 -23 48v2c0 24 9.33301 42.333 28 55s44.334 19 77.001 19
c18.667 0 36.167 -1.83301 52.5 -5.5s31.166 -8.5 44.499 -14.5v-27z" />
    <glyph glyph-name="b" unicode="b" horiz-adv-x="675" 
d="M631 267l0.000976562 1.99902c0 44.667 -6.83301 84.167 -20.5 118.5s-31.834 63.333 -54.501 87s-48.667 41.5 -78 53.5s-59.666 18 -90.999 18c-40 0 -73.167 -8.16699 -99.5 -24.5s-48.833 -37.166 -67.5 -62.499v271h-152v-730h152v70
c18 -21.333 40.167 -40 66.5 -56s59.833 -24 100.5 -24c32 0 62.667 6 92 18s55.166 29.833 77.499 53.5s40.333 52.667 54 87s20.5 73.833 20.5 118.5zM479.001 266.999c0 -22.667 -3.5 -43 -10.5 -61s-16.5 -33.5 -28.5 -46.5s-25.833 -23 -41.5 -30
s-32.5 -10.5 -50.5 -10.5s-34.833 3.5 -50.5 10.5s-29.334 17 -41.001 30s-21 28.667 -28 47s-10.5 38.5 -10.5 60.5v2c0 22 3.5 42.167 10.5 60.5s16.333 34 28 47s25.334 23 41.001 30s32.5 10.5 50.5 10.5s34.833 -3.5 50.5 -10.5s29.5 -17 41.5 -30
s21.5 -28.667 28.5 -47s10.5 -38.5 10.5 -60.5v-2z" />
    <glyph glyph-name="c" unicode="c" horiz-adv-x="571" 
d="M540 86l-88.999 89.999c-18.667 -17.333 -37.5 -31.166 -56.5 -41.499s-41.167 -15.5 -66.5 -15.5c-20.667 0 -39.334 3.83301 -56.001 11.5s-31 18.167 -43 31.5s-21.167 29 -27.5 47s-9.5 37.333 -9.5 58v2c0 20 3.16699 38.833 9.5 56.5s15.333 33.167 27 46.5
s25.334 23.833 41.001 31.5s33.167 11.5 52.5 11.5c27.333 0 50.166 -5.33301 68.499 -16s36.166 -25 53.499 -43l93 100c-25.333 28 -54.666 50 -87.999 66s-75.333 24 -126 24c-41.333 0 -79.166 -7.33301 -113.499 -22s-63.833 -34.667 -88.5 -60s-44 -55 -58 -89
s-21 -70 -21 -108v-2c0 -38 7 -73.833 21 -107.5s33.333 -63 58 -88s54.167 -44.833 88.5 -59.5s71.5 -22 111.5 -22c53.333 0 96.666 9.16699 129.999 27.5s63 41.833 89 70.5z" />
    <glyph glyph-name="d" unicode="d" horiz-adv-x="675" 
d="M607 0l-0.000976562 730.001h-152v-264c-18 21.333 -40.167 40 -66.5 56s-59.833 24 -100.5 24c-32 0 -62.667 -6 -92 -18s-55.166 -29.833 -77.499 -53.5s-40.333 -52.667 -54 -87s-20.5 -73.833 -20.5 -118.5v-2c0 -44.667 6.83301 -84.167 20.5 -118.5
s31.834 -63.333 54.501 -87s48.667 -41.5 78 -53.5s59.666 -18 90.999 -18c40 0 73.167 8.16699 99.5 24.5s48.833 37.166 67.5 62.499v-77h152zM456.999 267.001c0 -22 -3.5 -42.167 -10.5 -60.5s-16.333 -34 -28 -47s-25.334 -23 -41.001 -30s-32.5 -10.5 -50.5 -10.5
s-34.833 3.5 -50.5 10.5s-29.5 17 -41.5 30s-21.5 28.667 -28.5 47s-10.5 38.5 -10.5 60.5v2c0 22.667 3.5 43 10.5 61s16.5 33.5 28.5 46.5s25.833 23 41.5 30s32.5 10.5 50.5 10.5s34.833 -3.5 50.5 -10.5s29.334 -17 41.001 -30s21 -28.667 28 -47s10.5 -38.5 10.5 -60.5
v-2z" />
    <glyph glyph-name="e" unicode="e" horiz-adv-x="613" 
d="M568 253v2.00195c0 38 -5.16699 74.5 -15.5 109.5s-26.333 66 -48 93s-48.834 48.5 -81.501 64.5s-71.334 24 -116.001 24c-39.333 0 -75.166 -7.33301 -107.499 -22s-60.166 -34.667 -83.499 -60s-41.5 -55 -54.5 -89s-19.5 -70 -19.5 -108v-2
c0 -41.333 7 -78.833 21 -112.5s33.5 -62.834 58.5 -87.501s54.667 -43.667 89 -57s71.5 -20 111.5 -20c48.667 0 91 8.83301 127 26.5s66.667 42.167 92 73.5l-87 77c-21.333 -19.333 -42 -33.333 -62 -42s-42.667 -13 -68 -13c-34 0 -62.5 8.83301 -85.5 26.5
s-38.167 43.834 -45.5 78.501h373c0.666992 7.33301 1.16699 13.666 1.5 18.999s0.5 11.666 0.5 18.999zM420 310.002l-229 -0.000976562c6 34.667 18.833 62.334 38.5 83.001s45.5 31 77.5 31s57.667 -10.5 77 -31.5s31.333 -48.5 36 -82.5z" />
    <glyph glyph-name="f" unicode="f" horiz-adv-x="382" 
d="M368 596v125.999c-14 4.66699 -29.5 8.33398 -46.5 11.001s-37.5 4 -61.5 4c-54 0 -95.167 -13.833 -123.5 -41.5s-42.5 -71.167 -42.5 -130.5v-34h-63v-125h63v-406h152v406h121v124h-123v21c0 38.667 18.333 58 55 58c13.333 0 25.333 -1.16699 36 -3.5
s21.667 -5.5 33 -9.5z" />
    <glyph glyph-name="g" unicode="g" horiz-adv-x="675" 
d="M607 121v414.998h-152v-70c-20.667 22.667 -44.334 41.667 -71.001 57s-60.667 23 -102 23c-30.667 0 -60.334 -5.5 -89.001 -16.5s-54 -27.167 -76 -48.5s-39.667 -47.5 -53 -78.5s-20 -66.5 -20 -106.5v-2c0 -40 6.5 -75.5 19.5 -106.5s30.5 -57.167 52.5 -78.5
s47.333 -37.5 76 -48.5s58.667 -16.5 90 -16.5c40.667 0 74.334 7.66699 101.001 23s51.334 36.666 74.001 63.999v-26c0 -48 -12.5 -84.333 -37.5 -109s-63.5 -37 -115.5 -37c-36 0 -68.167 4.33301 -96.5 13s-56.5 20.667 -84.5 36l-52 -114c34 -18 71 -31.833 111 -41.5
s82 -14.5 126 -14.5c50 0 93.667 5.33301 131 16s68.5 27.334 93.5 50.001s43.667 51.834 56 87.501s18.5 78.834 18.5 129.501zM457 293.998c0 -18 -3.33594 -34.667 -10.0029 -50s-15.834 -28.5 -27.501 -39.5s-25.5 -19.5 -41.5 -25.5s-33.333 -9 -52 -9
c-37.333 0 -68.333 11.333 -93 34s-37 52.667 -37 90v2c0 18 3.33301 34.667 10 50s15.834 28.5 27.501 39.5s25.334 19.5 41.001 25.5s32.834 9 51.501 9s36 -3 52 -9s29.833 -14.5 41.5 -25.5s20.834 -24.167 27.501 -39.5s10 -32 10 -50v-2z" />
    <glyph glyph-name="h" unicode="h" horiz-adv-x="623" 
d="M559 0l-0.000976562 346.999c0 62 -15.833 110.667 -47.5 146s-76.5 53 -134.5 53c-19.333 0 -36.666 -2.33301 -51.999 -7s-29.333 -11 -42 -19s-24.167 -17.167 -34.5 -27.5s-19.833 -21.166 -28.5 -32.499v270h-152v-730h152v299c0 36 8.5 63.167 25.5 81.5
s40.167 27.5 69.5 27.5s52 -9.16699 68 -27.5s24 -45.5 24 -81.5v-299h152z" />
    <glyph glyph-name="i" unicode="i" horiz-adv-x="302" 
d="M231 595v135h-160v-135h160zM227 0v536h-152v-536h152z" />
    <glyph glyph-name="j" unicode="j" horiz-adv-x="302" 
d="M231 595v135h-160v-135h160zM227 9l-0.000976562 527h-152v-515c0 -22.667 -5 -38.667 -15 -48s-23 -14 -39 -14c-9.33301 0 -20 1 -32 3v-119c10.667 -2 20.834 -3.5 30.501 -4.5s21.5 -1.5 35.5 -1.5c56.667 0 99.5 13.833 128.5 41.5s43.5 71.167 43.5 130.5z" />
    <glyph glyph-name="k" unicode="k" horiz-adv-x="592" 
d="M587 0l-211 325l204 211h-182l-178 -195v389h-152v-730h152v163l53 56l140 -219h174z" />
    <glyph glyph-name="l" unicode="l" horiz-adv-x="302" 
d="M227 0v730h-152v-730h152z" />
    <glyph glyph-name="m" unicode="m" horiz-adv-x="950" 
d="M886 0l0.00195312 348.999c0 64.667 -16 113.667 -48 147s-76.333 50 -133 50c-36.667 0 -69.334 -7.16699 -98.001 -21.5s-54.667 -35.5 -78 -63.5c-14 27.333 -33.833 48.333 -59.5 63s-56.167 22 -91.5 22c-19.333 0 -36.833 -2.33301 -52.5 -7
s-29.834 -11 -42.501 -19s-24.167 -17.167 -34.5 -27.5s-19.833 -21.166 -28.5 -32.499v76h-152v-536h152v299c0 36 8.16699 63.167 24.5 81.5s38.833 27.5 67.5 27.5s50.667 -9.16699 66 -27.5s23 -45.5 23 -81.5v-299h152v299c0 36 8.16699 63.167 24.5 81.5
s38.833 27.5 67.5 27.5s50.667 -9.16699 66 -27.5s23 -45.5 23 -81.5v-299h152z" />
    <glyph glyph-name="n" unicode="n" horiz-adv-x="623" 
d="M559 0l-0.000976562 346.999c0 62 -15.833 110.667 -47.5 146s-76.5 53 -134.5 53c-19.333 0 -36.666 -2.33301 -51.999 -7s-29.333 -11 -42 -19s-24.167 -17.167 -34.5 -27.5s-19.833 -21.166 -28.5 -32.499v76h-152v-536h152v299c0 36 8.5 63.167 25.5 81.5
s40.167 27.5 69.5 27.5s52 -9.16699 68 -27.5s24 -45.5 24 -81.5v-299h152z" />
    <glyph glyph-name="o" unicode="o" horiz-adv-x="664" 
d="M622 267v2c0 38.667 -7.33301 74.834 -22 108.501s-34.834 63 -60.501 88s-56.167 44.667 -91.5 59s-73.666 21.5 -114.999 21.5c-42 0 -80.667 -7.33301 -116 -22s-66 -34.667 -92 -60s-46.333 -54.833 -61 -88.5s-22 -69.834 -22 -108.501v-2
c0 -38.667 7.33301 -74.834 22 -108.501s34.834 -63 60.501 -88s56.167 -44.667 91.5 -59s73.666 -21.5 114.999 -21.5c42 0 80.667 7.33301 116 22s66 34.667 92 60s46.333 54.833 61 88.5s22 69.834 22 108.501zM472 265c0 -20 -3.16699 -38.833 -9.5 -56.5
s-15.5 -33.167 -27.5 -46.5s-26.5 -23.833 -43.5 -31.5s-36.5 -11.5 -58.5 -11.5c-21.333 0 -40.5 4 -57.5 12s-31.833 18.833 -44.5 32.5s-22.334 29.334 -29.001 47.001s-10 36.5 -10 56.5v2c0 20 3.16699 38.833 9.5 56.5s15.5 33.167 27.5 46.5s26.5 23.833 43.5 31.5
s36.5 11.5 58.5 11.5c20.667 0 39.667 -4 57 -12s32.333 -18.833 45 -32.5s22.334 -29.334 29.001 -47.001s10 -36.5 10 -56.5v-2z" />
    <glyph glyph-name="p" unicode="p" horiz-adv-x="675" 
d="M631 267l0.000976562 1.99902c0 44.667 -6.83301 84.167 -20.5 118.5s-31.834 63.333 -54.501 87s-48.667 41.5 -78 53.5s-59.666 18 -90.999 18c-40 0 -73.167 -8.16699 -99.5 -24.5s-48.833 -37.166 -67.5 -62.499v77h-152v-696h152v230
c18 -21.333 40.167 -40 66.5 -56s59.833 -24 100.5 -24c32 0 62.667 6 92 18s55.166 29.833 77.499 53.5s40.333 52.667 54 87s20.5 73.833 20.5 118.5zM479.001 266.999c0 -22.667 -3.5 -43 -10.5 -61s-16.5 -33.5 -28.5 -46.5s-25.833 -23 -41.5 -30
s-32.5 -10.5 -50.5 -10.5s-34.833 3.5 -50.5 10.5s-29.334 17 -41.001 30s-21 28.667 -28 47s-10.5 38.5 -10.5 60.5v2c0 22 3.5 42.167 10.5 60.5s16.333 34 28 47s25.334 23 41.001 30s32.5 10.5 50.5 10.5s34.833 -3.5 50.5 -10.5s29.5 -17 41.5 -30
s21.5 -28.667 28.5 -47s10.5 -38.5 10.5 -60.5v-2z" />
    <glyph glyph-name="q" unicode="q" horiz-adv-x="675" 
d="M607 -160l-0.000976562 696.001h-152v-70c-18 21.333 -40.167 40 -66.5 56s-59.833 24 -100.5 24c-32 0 -62.667 -6 -92 -18s-55.166 -29.833 -77.499 -53.5s-40.333 -52.667 -54 -87s-20.5 -73.833 -20.5 -118.5v-2c0 -44.667 6.83301 -84.167 20.5 -118.5
s31.834 -63.333 54.501 -87s48.667 -41.5 78 -53.5s59.666 -18 90.999 -18c40 0 73.167 8.16699 99.5 24.5s48.833 37.166 67.5 62.499v-237h152zM456.999 267.001c0 -22 -3.5 -42.167 -10.5 -60.5s-16.333 -34 -28 -47s-25.334 -23 -41.001 -30s-32.5 -10.5 -50.5 -10.5
s-34.833 3.5 -50.5 10.5s-29.5 17 -41.5 30s-21.5 28.667 -28.5 47s-10.5 38.5 -10.5 60.5v2c0 22.667 3.5 43 10.5 61s16.5 33.5 28.5 46.5s25.833 23 41.5 30s32.5 10.5 50.5 10.5s34.833 -3.5 50.5 -10.5s29.334 -17 41.001 -30s21 -28.667 28 -47s10.5 -38.5 10.5 -60.5
v-2z" />
    <glyph glyph-name="r" unicode="r" horiz-adv-x="418" 
d="M391 387v158.999c-45.333 2 -81.333 -8 -108 -30s-47.667 -51.333 -63 -88v108h-152v-536h152v198c0 64.667 14.5 112.334 43.5 143.001s68.833 46 119.5 46h8z" />
    <glyph glyph-name="s" unicode="s" horiz-adv-x="502" 
d="M461 163l0.00195312 1.99902c0 24.667 -5 45.667 -15 63s-22.667 32 -38 44s-32.666 22.167 -51.999 30.5s-38.333 15.5 -57 21.5c-14.667 4.66699 -28.5 9.33398 -41.5 14.001s-24.5 9.5 -34.5 14.5s-18 10.333 -24 16s-9 12.167 -9 19.5v2
c0 10.667 4.66699 19.5 14 26.5s23.333 10.5 42 10.5c19.333 0 41.666 -4.5 66.999 -13.5s51.333 -21.167 78 -36.5l58 105c-29.333 19.333 -61.5 34.5 -96.5 45.5s-69.5 16.5 -103.5 16.5c-27.333 0 -52.833 -3.66699 -76.5 -11s-44.334 -18.333 -62.001 -33
s-31.667 -32.5 -42 -53.5s-15.5 -45.167 -15.5 -72.5v-2c0 -26 4.83301 -48 14.5 -66s22.167 -33.167 37.5 -45.5s32.5 -22.333 51.5 -30s37.833 -14.167 56.5 -19.5l42 -13c13.333 -4 25.166 -8.16699 35.499 -12.5s18.5 -9.5 24.5 -15.5s9 -13 9 -21v-2
c0 -12 -5.16699 -21.667 -15.5 -29s-26.5 -11 -48.5 -11c-25.333 0 -52.5 5.33301 -81.5 16s-58.167 26.667 -87.5 48l-65 -100c36 -28 73.833 -48.5 113.5 -61.5s78.5 -19.5 116.5 -19.5c28.667 0 55.5 3.5 80.5 10.5s46.833 17.5 65.5 31.5s33.167 31.833 43.5 53.5
s15.5 47.5 15.5 77.5z" />
    <glyph glyph-name="t" unicode="t" horiz-adv-x="415" 
d="M369 22v121.999c-23.333 -12.667 -48.333 -19 -75 -19c-32.667 0 -49 17.333 -49 52v229h126v130h-126v137h-152v-137h-64v-130h64v-254c0 -31.333 3.83301 -57.166 11.5 -77.499s18.334 -36.833 32.001 -49.5s30 -21.5 49 -26.5s40.167 -7.5 63.5 -7.5
c25.333 0 47.666 2.83301 66.999 8.5s37 13.167 53 22.5z" />
    <glyph glyph-name="u" unicode="u" horiz-adv-x="623" 
d="M555 0l0.000976562 536.001h-152v-299c0 -36 -8.5 -63.167 -25.5 -81.5s-40.167 -27.5 -69.5 -27.5s-52 9.16699 -68 27.5s-24 45.5 -24 81.5v299h-152v-347c0 -62 15.833 -110.667 47.5 -146s76.5 -53 134.5 -53c19.333 0 36.666 2.33301 51.999 7s29.333 11 42 19
s24.167 17.167 34.5 27.5s19.833 21.166 28.5 32.499v-76h152z" />
    <glyph glyph-name="v" unicode="v" horiz-adv-x="600" 
d="M580 536h-158l-121 -359l-120 359h-161l211 -540h138z" />
    <glyph glyph-name="w" unicode="w" horiz-adv-x="861" 
d="M837 536h-151l-88 -326l-102 328h-131l-101 -327l-86 325h-154l165 -540h136l105 329l103 -329h137z" />
    <glyph glyph-name="x" unicode="x" horiz-adv-x="584" 
d="M561 0l-189 275l181 261h-159l-101 -156l-100 156h-163l181 -264l-188 -272h159l108 167l108 -167h163z" />
    <glyph glyph-name="y" unicode="y" horiz-adv-x="600" 
d="M578 536h-157.998l-117 -365l-122 365h-161l210 -538c-6.66699 -13.333 -13.834 -22.5 -21.501 -27.5s-18.167 -7.5 -31.5 -7.5c-10 0 -20.833 2 -32.5 6s-22.5 9 -32.5 15l-51 -110c19.333 -11.333 39.666 -20.333 60.999 -27s46 -10 74 -10
c22.667 0 42.667 2.66699 60 8s32.833 14 46.5 26s26.167 27.5 37.5 46.5s22 42.167 32 69.5z" />
    <glyph glyph-name="z" unicode="z" horiz-adv-x="563" 
d="M516 0v123h-278l278 306v107h-457v-123h268l-277 -306v-107h466z" />
    <glyph glyph-name="braceleft" unicode="{" horiz-adv-x="490" 
d="M443 614l-27 101.002c-46 -8 -84 -18 -114 -30s-53.833 -26.167 -71.5 -42.5s-30.167 -35 -37.5 -56s-11 -44.167 -11 -69.5c0 -4 0.166992 -9 0.5 -15s0.666016 -12.333 0.999023 -19l1 -19.5c0.333008 -6.33301 0.5 -11.5 0.5 -15.5c0 -39.333 -8.5 -66.333 -25.5 -81
s-45.167 -22 -84.5 -22h-26v-116h26c39.333 0 67.5 -7.33301 84.5 -22s25.5 -41.667 25.5 -81c0 -4 -0.166992 -9.16699 -0.5 -15.5l-1 -19.5c-0.333008 -6.66699 -0.666016 -13 -0.999023 -19s-0.5 -11 -0.5 -15c0 -25.333 3.66699 -48.5 11 -69.5s19.833 -39.667 37.5 -56
s41.5 -30.5 71.5 -42.5s68 -22 114 -30l27 101c-26.667 7.33301 -48 14.833 -64 22.5s-28.333 16.167 -37 25.5s-14.334 19.666 -17.001 30.999s-4 24.666 -4 39.999c0 10 0.5 22.167 1.5 36.5s1.5 26.833 1.5 37.5c0 36.667 -8.83301 65.334 -26.5 86.001
s-43.5 36.667 -77.5 48c34 11.333 59.833 27.333 77.5 48s26.5 49.334 26.5 86.001c0 10.667 -0.5 23.167 -1.5 37.5s-1.5 26.5 -1.5 36.5c0 15.333 1.33301 28.666 4 39.999s8.33398 21.666 17.001 30.999s21 17.833 37 25.5s37.333 15.167 64 22.5z" />
    <glyph glyph-name="bar" unicode="|" horiz-adv-x="350" 
d="M235 -128v926h-120v-926h120z" />
    <glyph glyph-name="braceright" unicode="}" horiz-adv-x="490" 
d="M441 229v115.998h-26c-39.333 0 -67.5 7.33301 -84.5 22s-25.5 41.667 -25.5 81c0 4 0.166992 9.16699 0.5 15.5l1 19.5c0.333008 6.66699 0.666016 13 0.999023 19s0.5 11 0.5 15c0 25.333 -3.66699 48.5 -11 69.5s-19.833 39.667 -37.5 56s-41.5 30.5 -71.5 42.5
s-68 22 -114 30l-27 -101c26.667 -7.33301 48 -14.833 64 -22.5s28.333 -16.167 37 -25.5s14.334 -19.666 17.001 -30.999s4 -24.666 4 -39.999c0 -10 -0.5 -22.167 -1.5 -36.5s-1.5 -26.833 -1.5 -37.5c0 -36.667 8.83301 -65.334 26.5 -86.001s43.5 -36.667 77.5 -48
c-34 -11.333 -59.833 -27.333 -77.5 -48s-26.5 -49.334 -26.5 -86.001c0 -10.667 0.5 -23.167 1.5 -37.5s1.5 -26.5 1.5 -36.5c0 -15.333 -1.33301 -28.666 -4 -39.999s-8.33398 -21.666 -17.001 -30.999s-21 -17.833 -37 -25.5s-37.333 -15.167 -64 -22.5l27 -101
c46 8 84 18 114 30s53.833 26.167 71.5 42.5s30.167 35 37.5 56s11 44.167 11 69.5c0 4 -0.166992 9 -0.5 15s-0.666016 12.333 -0.999023 19l-1 19.5c-0.333008 6.33301 -0.5 11.5 -0.5 15.5c0 39.333 8.5 66.333 25.5 81s45.167 22 84.5 22h26z" />
    <glyph glyph-name="asciitilde" unicode="~" horiz-adv-x="510" 
d="M461 372l-80.999 25c-7.33301 -16 -14.833 -28.167 -22.5 -36.5s-19.167 -12.5 -34.5 -12.5c-9.33301 0 -19.333 2 -30 6l-35 13.5c-12.667 5 -26.167 9.5 -40.5 13.5s-29.166 6 -44.499 6c-17.333 0 -32.5 -3.33301 -45.5 -10s-24.333 -16 -34 -28s-18 -26.5 -25 -43.5
s-13.5 -35.833 -19.5 -56.5l81 -25c7.33301 16 14.833 28.167 22.5 36.5s19.167 12.5 34.5 12.5c8.66699 0 18.5 -2 29.5 -6l35.5 -13.5c12.667 -5 26.167 -9.5 40.5 -13.5s29.166 -6 44.499 -6c34.667 0 61.167 12.5 79.5 37.5s33.166 58.5 44.499 100.5z" />
    <glyph glyph-name="nonbreakingspace" unicode="&#xa0;" horiz-adv-x="300" 
 />
    <glyph glyph-name="exclamdown" unicode="&#xa1;" horiz-adv-x="324" 
d="M81 700v-160h162v160h-162zM251 0v20l-47 442h-84l-47 -442v-20h178z" />
    <glyph glyph-name="cent" unicode="&#xa2;" horiz-adv-x="581" 
d="M348 208l54.998 276.003c9.33301 -4.66699 17.833 -10 25.5 -16s15.5 -13 23.5 -21l90 97c-15.333 16.667 -31.666 31.334 -48.999 44.001s-37 22.667 -59 30l17 88h-104l-14 -72h-6c-40.667 0 -78.167 -7.33301 -112.5 -22s-63.833 -34.667 -88.5 -60s-44 -55 -58 -89
s-21 -70.333 -21 -109c0 -30 4.33301 -58.833 13 -86.5s21 -52.834 37 -75.501s35 -42.5 57 -59.5s46.333 -30.5 73 -40.5l-19 -98h104l16 82c48.667 1.33301 90 11.166 124 29.499s64 42.166 90 71.499l-86 87c-16 -15.333 -32.667 -27.833 -50 -37.5
s-36.666 -15.834 -57.999 -18.501zM311.998 503.003l-54 -276.998c-20.667 13.333 -36.5 31.333 -47.5 54s-16.5 48 -16.5 76c0 19.333 2.83301 37.5 8.5 54.5s13.667 32.167 24 45.5s22.833 24.166 37.5 32.499s30.667 13.166 48 14.499z" />
    <glyph glyph-name="sterling" unicode="&#xa3;" horiz-adv-x="644" 
d="M136 394h-75.999v-127h76v-141l-76 -25v-101h536v133h-304v134h228v127h-228v77c0 30 7.5 53.5 22.5 70.5s35.167 25.5 60.5 25.5c21.333 0 40 -5.5 56 -16.5s32.667 -27.5 50 -49.5l117 94c-12 16 -25.167 31 -39.5 45s-30.5 26.167 -48.5 36.5s-38.333 18.5 -61 24.5
s-48 9 -76 9c-76.667 0 -135.334 -20.667 -176.001 -62s-61 -99 -61 -173v-81z" />
    <glyph glyph-name="currency" unicode="&#xa4;" horiz-adv-x="720" 
d="M124 386c-0.666992 -6 -0.993164 -12.3301 -0.993164 -18.9971v-18v-16c0 -4.66699 0.333008 -9.66699 1 -15h-75v-101h92c10 -34 23.833 -65.167 41.5 -93.5s39 -52.5 64 -72.5s53.5 -35.5 85.5 -46.5s67 -16.5 105 -16.5c57.333 0 105.166 12.667 143.499 38
s72.166 58.666 101.499 99.999l-110 81c-22 -27.333 -42.833 -47.833 -62.5 -61.5s-43.834 -20.5 -72.501 -20.5c-32 0 -59.333 7.83301 -82 23.5s-40.334 38.5 -53.001 68.5h186v101h-208c-0.666992 5.33301 -1 10.666 -1 15.999v17v18c0 6 0.333008 11.667 1 17h208v101
h-184c12.667 28 29.5 49.667 50.5 65s46.5 23 76.5 23c29.333 0 54 -6.83301 74 -20.5s39.667 -33.167 59 -58.5l116 88c-13.333 18.667 -27.833 35.834 -43.5 51.501s-33.334 29.167 -53.001 40.5s-41.834 20.166 -66.501 26.499s-52.334 9.5 -83.001 9.5
c-37.333 0 -71.5 -5.5 -102.5 -16.5s-58.667 -26.5 -83 -46.5s-45.5 -43.833 -63.5 -71.5s-32 -57.834 -42 -90.501h-94v-101h75z" />
    <glyph glyph-name="yen" unicode="&#xa5;" horiz-adv-x="686" 
d="M417 262h184v108h-145l216 330h-172l-155 -259l-154 259h-177l214 -330h-143v-108h184v-62h-184v-108h184v-92h148v92h184v108h-184v62z" />
    <glyph glyph-name="section" unicode="&#xa7;" horiz-adv-x="632" 
d="M577 356c0 19.333 -4.16699 36.333 -12.5 51s-21.5 27.834 -39.5 39.501s-41 22.334 -69 32.001s-61.667 18.834 -101 27.501c-24 5.33301 -43.167 10.166 -57.5 14.499s-25.333 8.66602 -33 12.999s-12.834 8.66602 -15.501 12.999s-4 9.5 -4 15.5
c0 11.333 5.33301 20.333 16 27s27.334 10 50.001 10c28 0 53.667 -5.66699 77 -17s46.666 -27.666 69.999 -48.999l82 82c-28 30.667 -61 54.167 -99 70.5s-82.667 24.5 -134 24.5c-65.333 0 -115.833 -14 -151.5 -42s-53.5 -66 -53.5 -114
c0 -17.333 3.33301 -34.166 10 -50.499s17.334 -30.166 32.001 -41.499c-25.333 -9.33301 -46.5 -23 -63.5 -41s-25.5 -43.667 -25.5 -77c0 -19.333 4.16699 -36.333 12.5 -51s21.5 -27.834 39.5 -39.501s41 -22.334 69 -32.001s61.667 -18.834 101 -27.501
c24 -5.33301 43.167 -10.166 57.5 -14.499s25.333 -8.66602 33 -12.999s12.834 -8.66602 15.501 -12.999s4 -9.5 4 -15.5c0 -11.333 -5.33301 -20.333 -16 -27s-27.334 -10 -50.001 -10c-28 0 -53.667 5.66699 -77 17s-46.666 27.666 -69.999 48.999l-82 -82
c28 -30.667 61 -54.167 99 -70.5s82.667 -24.5 134 -24.5c65.333 0 115.833 14 151.5 42s53.5 66 53.5 114c0 17.333 -3.33301 34.166 -10 50.499s-17.334 30.166 -32.001 41.499c25.333 9.33301 46.5 23 63.5 41s25.5 43.667 25.5 77zM444 334
c0 -13.333 -4.83301 -24.166 -14.5 -32.499s-23.167 -12.5 -40.5 -12.5c-10.667 0 -23.5 1.33301 -38.5 4s-35.5 7.33398 -61.5 14.001c-34.667 8.66699 -60.167 17.334 -76.5 26.001s-24.5 19.667 -24.5 33s4.83301 24.166 14.5 32.499s23.167 12.5 40.5 12.5
c10.667 0 23.5 -1.33301 38.5 -4s35.5 -7.33398 61.5 -14.001c34.667 -8.66699 60.167 -17.334 76.5 -26.001s24.5 -19.667 24.5 -33z" />
    <glyph glyph-name="dieresis" unicode="&#xa8;" 
d="M430 595v135h-146v-135h146zM216 595v135h-146v-135h146z" />
    <glyph glyph-name="copyright" unicode="&#xa9;" horiz-adv-x="830" 
d="M777 351c0 49.333 -9.33301 96 -28 140s-44.167 82.333 -76.5 115s-70.5 58.5 -114.5 77.5s-91.333 28.5 -142 28.5s-98.167 -9.66699 -142.5 -29s-82.833 -45.5 -115.5 -78.5s-58.334 -71.5 -77.001 -115.5s-28 -90.667 -28 -140s9.33301 -96 28 -140
s44.167 -82.333 76.5 -115s70.5 -58.5 114.5 -77.5s91.333 -28.5 142 -28.5s98.167 9.66699 142.5 29s82.833 45.5 115.5 78.5s58.334 71.5 77.001 115.5s28 90.667 28 140zM735 351c0 -44.667 -8.16602 -86.5 -24.499 -125.5s-38.833 -73.167 -67.5 -102.5
s-62.5 -52.5 -101.5 -69.5s-81.5 -25.5 -127.5 -25.5c-45.333 0 -87.5 8.33301 -126.5 25s-72.833 39.5 -101.5 68.5s-51 63 -67 102s-24 80.833 -24 125.5s8.16699 86.5 24.5 125.5s38.833 73.167 67.5 102.5s62.5 52.5 101.5 69.5s81.5 25.5 127.5 25.5
c45.333 0 87.5 -8.33301 126.5 -25s72.667 -39.5 101 -68.5s50.666 -63 66.999 -102s24.5 -80.833 24.5 -125.5zM577.001 225l-55.998 55.998c-15.333 -13.333 -30.333 -24.166 -45 -32.499s-32.667 -12.5 -54 -12.5c-16 0 -30.833 3.16699 -44.5 9.5
s-25.334 14.833 -35.001 25.5s-17.167 23.334 -22.5 38.001s-8 30 -8 46c0 16.667 2.66699 32.167 8 46.5s13 26.833 23 37.5s21.667 19.167 35 25.5s28 9.5 44 9.5c18.667 0 35.834 -3.83301 51.501 -11.5s30.834 -18.167 45.501 -31.5l55 64
c-18 17.333 -38.667 31.5 -62 42.5s-53.333 16.5 -90 16.5c-29.333 0 -56.333 -5.33301 -81 -16s-45.834 -25 -63.501 -43s-31.334 -39.167 -41.001 -63.5s-14.5 -50.166 -14.5 -77.499c0 -28 5 -54 15 -78s23.667 -44.833 41 -62.5s38.166 -31.667 62.499 -42
s50.5 -15.5 78.5 -15.5c37.333 0 68 6.16699 92 18.5s46 29.166 66 50.499z" />
    <glyph glyph-name="ordfeminine" unicode="&#xaa;" horiz-adv-x="390" 
d="M323 405l-0.000976562 170.999c0 40 -10.333 71.167 -31 93.5s-54 33.5 -100 33.5c-25.333 0 -46.666 -2.16699 -63.999 -6.5s-34.333 -10.166 -51 -17.499l21 -63c13.333 5.33301 26.333 9.33301 39 12s26.667 4 42 4c21.333 0 37.333 -4.66699 48 -14
s16 -22.666 16 -39.999v-5c-10.667 3.33301 -21.667 6.16602 -33 8.49902s-24.333 3.5 -39 3.5c-35.333 0 -64 -7.66699 -86 -23s-33 -39.333 -33 -72c0 -30 9.83301 -52.667 29.5 -68s43.5 -23 71.5 -23c20.667 0 38.167 3.5 52.5 10.5s26.5 16.167 36.5 27.5v-32h81z
M326.999 276.999v66h-278v-66h278zM243.999 508.999c0 -15.333 -6.16797 -27.833 -18.501 -37.5s-28.166 -14.5 -47.499 -14.5c-13.333 0 -24.166 3.16699 -32.499 9.5s-12.5 15.5 -12.5 27.5c0 13.333 5.16699 23.5 15.5 30.5s24.166 10.5 41.499 10.5
c10.667 0 20.5 -1 29.5 -3s17.167 -4.66699 24.5 -8v-15z" />
    <glyph glyph-name="guillemotleft" unicode="&#xab;" horiz-adv-x="645" 
d="M481 496l-168 -224v-8l168 -224l116 58l-130 171l130 171zM209 496l-168 -224v-8l168 -224l116 58l-130 171l130 171z" />
    <glyph glyph-name="registered" unicode="&#xae;" horiz-adv-x="830" 
d="M777 351c0 49.333 -9.33301 96 -28 140s-44.167 82.333 -76.5 115s-70.5 58.5 -114.5 77.5s-91.333 28.5 -142 28.5s-98.167 -9.66699 -142.5 -29s-82.833 -45.5 -115.5 -78.5s-58.334 -71.5 -77.001 -115.5s-28 -90.667 -28 -140s9.33301 -96 28 -140
s44.167 -82.333 76.5 -115s70.5 -58.5 114.5 -77.5s91.333 -28.5 142 -28.5s98.167 9.66699 142.5 29s82.833 45.5 115.5 78.5s58.334 71.5 77.001 115.5s28 90.667 28 140zM735 351c0 -44.667 -8.16602 -86.5 -24.499 -125.5s-38.833 -73.167 -67.5 -102.5
s-62.5 -52.5 -101.5 -69.5s-81.5 -25.5 -127.5 -25.5c-45.333 0 -87.5 8.33301 -126.5 25s-72.833 39.5 -101.5 68.5s-51 63 -67 102s-24 80.833 -24 125.5s8.16699 86.5 24.5 125.5s38.833 73.167 67.5 102.5s62.5 52.5 101.5 69.5s81.5 25.5 127.5 25.5
c45.333 0 87.5 -8.33301 126.5 -25s72.667 -39.5 101 -68.5s50.666 -63 66.999 -102s24.5 -80.833 24.5 -125.5zM588.001 426c0 40 -13.667 71.168 -41 93.501s-64 33.5 -110 33.5h-171v-385h85v124h67l82 -124h99l-94 138c24.667 9.33301 44.667 23.666 60 42.999
s23 45 23 77zM502.001 421.001c0 -16.667 -5.66797 -30.168 -17.001 -40.501s-27.666 -15.5 -48.999 -15.5h-85v113h83c21.333 0 38 -4.66699 50 -14s18 -23.666 18 -42.999z" />
    <glyph glyph-name="macron" unicode="&#xaf;" 
d="M430 600v105h-360v-105h360z" />
    <glyph glyph-name="macron" unicode="&#x2c9;" 
d="M430 600v105h-360v-105h360z" />
    <glyph glyph-name="degree" unicode="&#xb0;" horiz-adv-x="480" 
d="M413 537c0 22.667 -4.66699 44.167 -14 64.5s-22 38.333 -38 54s-34.5 28 -55.5 37s-42.833 13.5 -65.5 13.5s-44.5 -4.5 -65.5 -13.5s-39.5 -21.333 -55.5 -37s-28.667 -33.667 -38 -54s-14 -41.833 -14 -64.5s4.66699 -44.167 14 -64.5s22 -38.333 38 -54
s34.5 -28 55.5 -37s42.833 -13.5 65.5 -13.5s44.5 4.5 65.5 13.5s39.5 21.333 55.5 37s28.667 33.667 38 54s14 41.833 14 64.5zM332 537c0 -12.667 -2.33301 -24.667 -7 -36s-11 -21.333 -19 -30s-17.667 -15.5 -29 -20.5s-23.666 -7.5 -36.999 -7.5
s-25.666 2.5 -36.999 7.5s-21 11.833 -29 20.5s-14.333 18.667 -19 30s-7 23.333 -7 36s2.33301 24.667 7 36s11 21.333 19 30s17.667 15.5 29 20.5s23.666 7.5 36.999 7.5s25.666 -2.5 36.999 -7.5s21 -11.833 29 -20.5s14.333 -18.667 19 -30s7 -23.333 7 -36z" />
    <glyph glyph-name="plusminus" unicode="&#xb1;" horiz-adv-x="614" 
d="M570 207c0 41.333 -10.5 73.667 -31.5 97s-47.5 42 -79.5 56c27.333 15.333 49.5 35.666 66.5 60.999s25.5 59.333 25.5 102c0 28 -5.83301 53.5 -17.5 76.5s-28.5 42.833 -50.5 59.5s-48.333 29.667 -79 39s-65 14 -103 14c-30 0 -57 -3 -81 -9s-46 -14.667 -66 -26
s-38.333 -24.833 -55 -40.5s-33 -33.5 -49 -53.5l106 -90c21.333 24 43 43.5 65 58.5s48 22.5 78 22.5c32 0 56.833 -7 74.5 -21s26.5 -32 26.5 -54c0 -24 -9.16699 -43.667 -27.5 -59s-45.5 -23 -81.5 -23h-81v-128h77c42 0 74.5 -6.66699 97.5 -20s34.5 -33.333 34.5 -60
c0 -25.333 -8.83301 -45.5 -26.5 -60.5s-43.167 -22.5 -76.5 -22.5c-38 0 -71 7.33301 -99 22s-53.667 34.334 -77 59.001l-103 -100c34 -36.667 74.167 -65.667 120.5 -87s98.5 -32 156.5 -32c40.667 0 77 5.5 109 16.5s58.833 26.167 80.5 45.5s38.167 42.5 49.5 69.5
s17 56.167 17 87.5z" />
    <glyph glyph-name="acute" unicode="&#xb4;" 
d="M262 595l128 120l-131 57l-113 -177h116z" />
    <glyph glyph-name="mu" unicode="&#xb5;" horiz-adv-x="850" 
d="M797 351c0 50 -9.16699 97 -27.5 141s-44 82.167 -77 114.5s-72.167 58 -117.5 77s-95 28.5 -149 28.5s-103.833 -9.5 -149.5 -28.5s-85 -45 -118 -78s-58.833 -71.5 -77.5 -115.5s-28 -91 -28 -141s9.16699 -97 27.5 -141s44 -82.167 77 -114.5s72.167 -58 117.5 -77
s95 -28.5 149 -28.5c36.667 0 72 4.66699 106 14l105 -103h226v10l-178 180c36 33.333 64 72.5 84 117.5s30 93.167 30 144.5zM636 349c0 -30 -5.16699 -58.333 -15.5 -85s-24.666 -50 -42.999 -70s-40.5 -35.667 -66.5 -47s-54.333 -17 -85 -17
c-31.333 0 -59.833 5.83301 -85.5 17.5s-48 27.5 -67 47.5s-33.667 43.5 -44 70.5s-15.5 55.5 -15.5 85.5s5.16699 58.333 15.5 85s24.666 50 42.999 70s40.333 35.667 66 47s54.167 17 85.5 17c30.667 0 59 -5.83301 85 -17.5s48.5 -27.5 67.5 -47.5s33.667 -43.5 44 -70.5
s15.5 -55.5 15.5 -85.5z" />
    <glyph glyph-name="mu" unicode="&#x3bc;" horiz-adv-x="850" 
d="M797 351c0 50 -9.16699 97 -27.5 141s-44 82.167 -77 114.5s-72.167 58 -117.5 77s-95 28.5 -149 28.5s-103.833 -9.5 -149.5 -28.5s-85 -45 -118 -78s-58.833 -71.5 -77.5 -115.5s-28 -91 -28 -141s9.16699 -97 27.5 -141s44 -82.167 77 -114.5s72.167 -58 117.5 -77
s95 -28.5 149 -28.5c36.667 0 72 4.66699 106 14l105 -103h226v10l-178 180c36 33.333 64 72.5 84 117.5s30 93.167 30 144.5zM636 349c0 -30 -5.16699 -58.333 -15.5 -85s-24.666 -50 -42.999 -70s-40.5 -35.667 -66.5 -47s-54.333 -17 -85 -17
c-31.333 0 -59.833 5.83301 -85.5 17.5s-48 27.5 -67 47.5s-33.667 43.5 -44 70.5s-15.5 55.5 -15.5 85.5s5.16699 58.333 15.5 85s24.666 50 42.999 70s40.333 35.667 66 47s54.167 17 85.5 17c30.667 0 59 -5.83301 85 -17.5s48.5 -27.5 67.5 -47.5s33.667 -43.5 44 -70.5
s15.5 -55.5 15.5 -85.5z" />
    <glyph glyph-name="paragraph" unicode="&#xb6;" horiz-adv-x="590" 
d="M311 700c-41.333 0 -78.834 -5.33301 -112.501 -16s-62.667 -26.167 -87 -46.5s-43.166 -45.166 -56.499 -74.499s-20 -62.333 -20 -99c0 -39.333 7.33301 -73.5 22 -102.5s35.167 -53.333 61.5 -73s57.333 -34.334 93 -44.001s74.5 -14.5 116.5 -14.5h24v-230h154v700
h-195z" />
    <glyph glyph-name="periodcentered" unicode="&#xb7;" horiz-adv-x="286" 
d="M224 230v160h-162v-160h162z" />
    <glyph glyph-name="cedilla" unicode="&#xb8;" 
d="M207 10l-89 -130l127 -53l74 183h-112z" />
    <glyph glyph-name="ordmasculine" unicode="&#xba;" horiz-adv-x="390" 
d="M349 552c0 21.333 -3.83301 41.333 -11.5 60s-18.334 34.834 -32.001 48.501s-29.834 24.5 -48.501 32.5s-39 12 -61 12s-42.5 -4 -61.5 -12s-35.333 -19 -49 -33s-24.5 -30.333 -32.5 -49s-12 -38.667 -12 -60s3.83301 -41.333 11.5 -60s18.334 -34.834 32.001 -48.501
s29.834 -24.5 48.501 -32.5s39 -12 61 -12s42.5 4 61.5 12s35.333 19 49 33s24.5 30.333 32.5 49s12 38.667 12 60zM339 277v66h-288v-66h288zM267 551c0 -22 -6.33301 -41 -19 -57s-30 -24 -52 -24s-39.667 8.16699 -53 24.5s-20 35.5 -20 57.5s6.33301 41 19 57
s30 24 52 24s39.667 -8.16699 53 -24.5s20 -35.5 20 -57.5z" />
    <glyph glyph-name="guillemotright" unicode="&#xbb;" horiz-adv-x="645" 
d="M436 40l168 224v8l-168 224l-116 -58l130 -171l-130 -171zM164 40l168 224v8l-168 224l-116 -58l130 -171l-130 -171z" />
    <glyph glyph-name="questiondown" unicode="&#xbf;" horiz-adv-x="544" 
d="M218 700v-160h162v160h-162zM365 295l4.99805 4.99902l-23 162h-102l-11 -61c-27.333 -5.33301 -53 -12.833 -77 -22.5s-44.833 -22.5 -62.5 -38.5s-31.667 -35.5 -42 -58.5s-15.5 -50.5 -15.5 -82.5c0 -33.333 5.83301 -63 17.5 -89s28.167 -47.833 49.5 -65.5
s46.833 -31 76.5 -40s62.5 -13.5 98.5 -13.5c54.667 0 101.834 10 141.501 30s74.167 46 103.5 78l-92 101c-23.333 -23.333 -47.166 -40.666 -71.499 -51.999s-50.5 -17 -78.5 -17c-29.333 0 -52 6.16699 -68 18.5s-24 30.166 -24 53.499c0 27.333 13.333 48.833 40 64.5
s71.667 24.834 135 27.501z" />
    <glyph glyph-name="Agrave" unicode="&#xc0;" horiz-adv-x="790" 
d="M766 0l-300 705h-142l-300 -705h157l64 157h296l64 -157h161zM486 293h-186l93 227zM459 755l-113 177l-131 -57l128 -120h116z" />
    <glyph glyph-name="Aacute" unicode="&#xc1;" horiz-adv-x="790" 
d="M766 0l-300 705h-142l-300 -705h157l64 157h296l64 -157h161zM486 293h-186l93 227zM447 755l128 120l-131 57l-113 -177h116z" />
    <glyph glyph-name="Acircumflex" unicode="&#xc2;" horiz-adv-x="790" 
d="M766 0l-300 705h-142l-300 -705h157l64 157h296l64 -157h161zM486 293h-186l93 227zM394 821l79 -66h117l-123 157h-144l-123 -157h115z" />
    <glyph glyph-name="Atilde" unicode="&#xc3;" horiz-adv-x="790" 
d="M766 0l-300 705h-142l-300 -705h157l64 157h296l64 -157h161zM486 293h-186l93 227zM601 893l-80.999 25c-7.33301 -16 -14.833 -28.167 -22.5 -36.5s-19.167 -12.5 -34.5 -12.5c-9.33301 0 -19.333 2 -30 6l-35 13.5c-12.667 5 -26.167 9.5 -40.5 13.5
s-29.166 6 -44.499 6c-17.333 0 -32.5 -3.33301 -45.5 -10s-24.333 -16 -34 -28s-18 -26.5 -25 -43.5s-13.5 -35.833 -19.5 -56.5l81 -25c7.33301 16 14.833 28.167 22.5 36.5s19.167 12.5 34.5 12.5c8.66699 0 18.5 -2 29.5 -6l35.5 -13.5
c12.667 -5 26.167 -9.5 40.5 -13.5s29.166 -6 44.499 -6c34.667 0 61.167 12.5 79.5 37.5s33.166 58.5 44.499 100.5z" />
    <glyph glyph-name="Adieresis" unicode="&#xc4;" horiz-adv-x="790" 
d="M766 0l-300 705h-142l-300 -705h157l64 157h296l64 -157h161zM486 293h-186l93 227zM575 755v135h-146v-135h146zM361 755v135h-146v-135h146z" />
    <glyph glyph-name="Aring" unicode="&#xc5;" horiz-adv-x="790" 
d="M766 0l-292.002 687c12.667 11.333 22.834 24.5 30.501 39.5s11.5 31.167 11.5 48.5c0 16 -3.33301 31.167 -10 45.5s-15.5 26.666 -26.5 36.999s-23.833 18.666 -38.5 24.999s-30 9.5 -46 9.5s-31.333 -3.16699 -46 -9.5s-27.5 -14.666 -38.5 -24.999
s-19.833 -22.666 -26.5 -36.999s-10 -29.5 -10 -45.5c0 -17.333 3.83301 -33.5 11.5 -48.5s17.834 -28.167 30.501 -39.5l-292 -687h157l64 157h296l64 -157h161zM456.998 775c0 -17.333 -6 -32 -18 -44s-26.667 -18 -44 -18s-32 6 -44 18s-18 26.667 -18 44s6 32 18 44
s26.667 18 44 18s32 -6 44 -18s18 -26.667 18 -44zM485.998 293h-186l93 227z" />
    <glyph glyph-name="AE" unicode="&#xc6;" horiz-adv-x="1045" 
d="M992 0v137h-355v147h305v137h-305v142h350v137h-601l-377 -700h157l83 157h235v-157h508zM484 293h-163l145 274h18v-274z" />
    <glyph glyph-name="Ccedilla" unicode="&#xc7;" horiz-adv-x="738" 
d="M326 -2l-79.998 -118l127 -53l65 162c30 1.33301 57.333 5.16602 82 11.499s47.5 14.833 68.5 25.5s40.5 23.334 58.5 38.001s35.333 31 52 49l-98 99c-27.333 -25.333 -54.833 -45.333 -82.5 -60s-61.5 -22 -101.5 -22c-30 0 -57.5 5.83301 -82.5 17.5
s-46.333 27.5 -64 47.5s-31.5 43.5 -41.5 70.5s-15 55.5 -15 85.5s5 58.333 15 85s24 50 42 70s39.5 35.667 64.5 47s52.167 17 81.5 17c35.333 0 67.166 -7 95.499 -21s56.166 -33.333 83.499 -58l98 113c-16 16 -33.333 30.667 -52 44s-39 24.666 -61 33.999
s-46.5 16.666 -73.5 21.999s-56.833 8 -89.5 8c-54 0 -103.333 -9.5 -148 -28.5s-83 -45 -115 -78s-57 -71.5 -75 -115.5s-27 -91 -27 -141c0 -43.333 6.66699 -84.166 20 -122.499s32 -73 56 -104s52.833 -57.167 86.5 -78.5s70.5 -36.666 110.5 -45.999z" />
    <glyph glyph-name="Egrave" unicode="&#xc8;" horiz-adv-x="670" 
d="M617 0v137h-380v147h330v137h-330v142h375v137h-528v-700h533zM433 755l-113 177l-131 -57l128 -120h116z" />
    <glyph glyph-name="Eacute" unicode="&#xc9;" horiz-adv-x="670" 
d="M617 0v137h-380v147h330v137h-330v142h375v137h-528v-700h533zM380 755l128 120l-131 57l-113 -177h116z" />
    <glyph glyph-name="Ecircumflex" unicode="&#xca;" horiz-adv-x="670" 
d="M617 0v137h-380v147h330v137h-330v142h375v137h-528v-700h533zM345 821l79 -66h117l-123 157h-144l-123 -157h115z" />
    <glyph glyph-name="Edieresis" unicode="&#xcb;" horiz-adv-x="670" 
d="M617 0v137h-380v147h330v137h-330v142h375v137h-528v-700h533zM526 755v135h-146v-135h146zM312 755v135h-146v-135h146z" />
    <glyph glyph-name="Igrave" unicode="&#xcc;" horiz-adv-x="336" 
d="M245 0v700h-154v-700h154zM336 755l-113 177l-131 -57l128 -120h116z" />
    <glyph glyph-name="Iacute" unicode="&#xcd;" horiz-adv-x="336" 
d="M245 0v700h-154v-700h154zM221 755l128 120l-131 57l-113 -177h116z" />
    <glyph glyph-name="Icircumflex" unicode="&#xce;" horiz-adv-x="336" 
d="M245 0v700h-154v-700h154zM285 821l79 -66h117l-123 157h-144l-123 -157h115z" />
    <glyph glyph-name="Idieresis" unicode="&#xcf;" horiz-adv-x="336" 
d="M245 0v700h-154v-700h154zM451 755v135h-146v-135h146zM237 755v135h-146v-135h146z" />
    <glyph glyph-name="Eth" unicode="&#xd0;" horiz-adv-x="812" 
d="M114 284v-284h273c54.667 0 104.834 9 150.501 27s85 42.667 118 74s58.5 68.5 76.5 111.5s27 89.167 27 138.5s-9 95.333 -27 138s-43.5 79.667 -76.5 111s-72.333 55.833 -118 73.5s-95.834 26.5 -150.501 26.5h-273v-280h-75v-136h75zM266 420v141.001h121
c31.333 0 60 -5.16699 86 -15.5s48.167 -24.833 66.5 -43.5s32.666 -41 42.999 -67s15.5 -54.667 15.5 -86s-5.16699 -59.833 -15.5 -85.5s-24.666 -47.834 -42.999 -66.501s-40.5 -33 -66.5 -43s-54.667 -15 -86 -15h-121v145h152v136h-152z" />
    <glyph glyph-name="Ntilde" unicode="&#xd1;" horiz-adv-x="790" 
d="M706 0v700h-152v-431l-328 431h-142v-700h152v445l339 -445h131zM601 893l-80.999 25c-7.33301 -16 -14.833 -28.167 -22.5 -36.5s-19.167 -12.5 -34.5 -12.5c-9.33301 0 -19.333 2 -30 6l-35 13.5c-12.667 5 -26.167 9.5 -40.5 13.5s-29.166 6 -44.499 6
c-17.333 0 -32.5 -3.33301 -45.5 -10s-24.333 -16 -34 -28s-18 -26.5 -25 -43.5s-13.5 -35.833 -19.5 -56.5l81 -25c7.33301 16 14.833 28.167 22.5 36.5s19.167 12.5 34.5 12.5c8.66699 0 18.5 -2 29.5 -6l35.5 -13.5c12.667 -5 26.167 -9.5 40.5 -13.5
s29.166 -6 44.499 -6c34.667 0 61.167 12.5 79.5 37.5s33.166 58.5 44.499 100.5z" />
    <glyph glyph-name="Ograve" unicode="&#xd2;" horiz-adv-x="850" 
d="M797 350v2c0 50 -9.16699 96.833 -27.5 140.5s-44 81.667 -77 114s-72.167 58 -117.5 77s-95 28.5 -149 28.5s-103.833 -9.5 -149.5 -28.5s-85 -45 -118 -78s-58.833 -71.333 -77.5 -115s-28 -90.5 -28 -140.5v-2c0 -50 9.16699 -96.833 27.5 -140.5s44 -81.667 77 -114
s72.167 -58 117.5 -77s95 -28.5 149 -28.5s103.833 9.5 149.5 28.5s85 45 118 78s58.833 71.333 77.5 115s28 90.5 28 140.5zM636 348c0 -30 -5.16699 -58.167 -15.5 -84.5s-24.666 -49.5 -42.999 -69.5s-40.5 -35.667 -66.5 -47s-54.333 -17 -85 -17
c-31.333 0 -59.833 5.83301 -85.5 17.5s-48 27.5 -67 47.5s-33.667 43.333 -44 70s-15.5 55 -15.5 85v2c0 30 5.16699 58.167 15.5 84.5s24.666 49.5 42.999 69.5s40.333 35.667 66 47s54.167 17 85.5 17c30.667 0 59 -5.83301 85 -17.5s48.5 -27.5 67.5 -47.5
s33.667 -43.333 44 -70s15.5 -55 15.5 -85v-2zM479 755l-113 177l-131 -57l128 -120h116z" />
    <glyph glyph-name="Oacute" unicode="&#xd3;" horiz-adv-x="850" 
d="M797 350v2c0 50 -9.16699 96.833 -27.5 140.5s-44 81.667 -77 114s-72.167 58 -117.5 77s-95 28.5 -149 28.5s-103.833 -9.5 -149.5 -28.5s-85 -45 -118 -78s-58.833 -71.333 -77.5 -115s-28 -90.5 -28 -140.5v-2c0 -50 9.16699 -96.833 27.5 -140.5s44 -81.667 77 -114
s72.167 -58 117.5 -77s95 -28.5 149 -28.5s103.833 9.5 149.5 28.5s85 45 118 78s58.833 71.333 77.5 115s28 90.5 28 140.5zM636 348c0 -30 -5.16699 -58.167 -15.5 -84.5s-24.666 -49.5 -42.999 -69.5s-40.5 -35.667 -66.5 -47s-54.333 -17 -85 -17
c-31.333 0 -59.833 5.83301 -85.5 17.5s-48 27.5 -67 47.5s-33.667 43.333 -44 70s-15.5 55 -15.5 85v2c0 30 5.16699 58.167 15.5 84.5s24.666 49.5 42.999 69.5s40.333 35.667 66 47s54.167 17 85.5 17c30.667 0 59 -5.83301 85 -17.5s48.5 -27.5 67.5 -47.5
s33.667 -43.333 44 -70s15.5 -55 15.5 -85v-2zM487 755l128 120l-131 57l-113 -177h116z" />
    <glyph glyph-name="Ocircumflex" unicode="&#xd4;" horiz-adv-x="850" 
d="M797 350v2c0 50 -9.16699 96.833 -27.5 140.5s-44 81.667 -77 114s-72.167 58 -117.5 77s-95 28.5 -149 28.5s-103.833 -9.5 -149.5 -28.5s-85 -45 -118 -78s-58.833 -71.333 -77.5 -115s-28 -90.5 -28 -140.5v-2c0 -50 9.16699 -96.833 27.5 -140.5s44 -81.667 77 -114
s72.167 -58 117.5 -77s95 -28.5 149 -28.5s103.833 9.5 149.5 28.5s85 45 118 78s58.833 71.333 77.5 115s28 90.5 28 140.5zM636 348c0 -30 -5.16699 -58.167 -15.5 -84.5s-24.666 -49.5 -42.999 -69.5s-40.5 -35.667 -66.5 -47s-54.333 -17 -85 -17
c-31.333 0 -59.833 5.83301 -85.5 17.5s-48 27.5 -67 47.5s-33.667 43.333 -44 70s-15.5 55 -15.5 85v2c0 30 5.16699 58.167 15.5 84.5s24.666 49.5 42.999 69.5s40.333 35.667 66 47s54.167 17 85.5 17c30.667 0 59 -5.83301 85 -17.5s48.5 -27.5 67.5 -47.5
s33.667 -43.333 44 -70s15.5 -55 15.5 -85v-2zM424 821l79 -66h117l-123 157h-144l-123 -157h115z" />
    <glyph glyph-name="Otilde" unicode="&#xd5;" horiz-adv-x="850" 
d="M797 350v2c0 50 -9.16699 96.833 -27.5 140.5s-44 81.667 -77 114s-72.167 58 -117.5 77s-95 28.5 -149 28.5s-103.833 -9.5 -149.5 -28.5s-85 -45 -118 -78s-58.833 -71.333 -77.5 -115s-28 -90.5 -28 -140.5v-2c0 -50 9.16699 -96.833 27.5 -140.5s44 -81.667 77 -114
s72.167 -58 117.5 -77s95 -28.5 149 -28.5s103.833 9.5 149.5 28.5s85 45 118 78s58.833 71.333 77.5 115s28 90.5 28 140.5zM636 348c0 -30 -5.16699 -58.167 -15.5 -84.5s-24.666 -49.5 -42.999 -69.5s-40.5 -35.667 -66.5 -47s-54.333 -17 -85 -17
c-31.333 0 -59.833 5.83301 -85.5 17.5s-48 27.5 -67 47.5s-33.667 43.333 -44 70s-15.5 55 -15.5 85v2c0 30 5.16699 58.167 15.5 84.5s24.666 49.5 42.999 69.5s40.333 35.667 66 47s54.167 17 85.5 17c30.667 0 59 -5.83301 85 -17.5s48.5 -27.5 67.5 -47.5
s33.667 -43.333 44 -70s15.5 -55 15.5 -85v-2zM631 893l-80.999 25c-7.33301 -16 -14.833 -28.167 -22.5 -36.5s-19.167 -12.5 -34.5 -12.5c-9.33301 0 -19.333 2 -30 6l-35 13.5c-12.667 5 -26.167 9.5 -40.5 13.5s-29.166 6 -44.499 6c-17.333 0 -32.5 -3.33301 -45.5 -10
s-24.333 -16 -34 -28s-18 -26.5 -25 -43.5s-13.5 -35.833 -19.5 -56.5l81 -25c7.33301 16 14.833 28.167 22.5 36.5s19.167 12.5 34.5 12.5c8.66699 0 18.5 -2 29.5 -6l35.5 -13.5c12.667 -5 26.167 -9.5 40.5 -13.5s29.166 -6 44.499 -6c34.667 0 61.167 12.5 79.5 37.5
s33.166 58.5 44.499 100.5z" />
    <glyph glyph-name="Odieresis" unicode="&#xd6;" horiz-adv-x="850" 
d="M797 350v2c0 50 -9.16699 96.833 -27.5 140.5s-44 81.667 -77 114s-72.167 58 -117.5 77s-95 28.5 -149 28.5s-103.833 -9.5 -149.5 -28.5s-85 -45 -118 -78s-58.833 -71.333 -77.5 -115s-28 -90.5 -28 -140.5v-2c0 -50 9.16699 -96.833 27.5 -140.5s44 -81.667 77 -114
s72.167 -58 117.5 -77s95 -28.5 149 -28.5s103.833 9.5 149.5 28.5s85 45 118 78s58.833 71.333 77.5 115s28 90.5 28 140.5zM636 348c0 -30 -5.16699 -58.167 -15.5 -84.5s-24.666 -49.5 -42.999 -69.5s-40.5 -35.667 -66.5 -47s-54.333 -17 -85 -17
c-31.333 0 -59.833 5.83301 -85.5 17.5s-48 27.5 -67 47.5s-33.667 43.333 -44 70s-15.5 55 -15.5 85v2c0 30 5.16699 58.167 15.5 84.5s24.666 49.5 42.999 69.5s40.333 35.667 66 47s54.167 17 85.5 17c30.667 0 59 -5.83301 85 -17.5s48.5 -27.5 67.5 -47.5
s33.667 -43.333 44 -70s15.5 -55 15.5 -85v-2zM605 755v135h-146v-135h146zM391 755v135h-146v-135h146z" />
    <glyph glyph-name="Oslash" unicode="&#xd8;" horiz-adv-x="850" 
d="M797 351c0 46.667 -7.83301 90.334 -23.5 131.001s-37.834 77 -66.501 109l98 114h-147l-39 -43c-28 16 -58.167 28.333 -90.5 37s-66.5 13 -102.5 13c-54 0 -103.833 -9.5 -149.5 -28.5s-85 -45 -118 -78s-58.833 -71.5 -77.5 -115.5s-28 -91 -28 -141
c0 -46.667 7.83301 -90.334 23.5 -131.001s37.834 -77 66.501 -109l-98 -114h147l39 43c28 -16 58.167 -28.333 90.5 -37s66.5 -13 102.5 -13c54 0 103.833 9.5 149.5 28.5s85 45 118 78s58.833 71.5 77.5 115.5s28 91 28 141zM523 549l-276.999 -321.001
c-23.333 36.667 -35 77.667 -35 123c0 30 5.16699 58.333 15.5 85s24.833 50.167 43.5 70.5s41.167 36.5 67.5 48.5s55.166 18 86.499 18c18.667 0 36.167 -2.16699 52.5 -6.5s31.833 -10.166 46.5 -17.499zM639.001 348.999c0 -30 -5.16797 -58.332 -15.501 -84.999
s-24.833 -50.167 -43.5 -70.5s-41.167 -36.5 -67.5 -48.5s-55.166 -18 -86.499 -18c-18.667 0 -36.167 2.16699 -52.5 6.5s-31.833 10.166 -46.5 17.499l277 321c23.333 -36.667 35 -77.667 35 -123z" />
    <glyph glyph-name="Ugrave" unicode="&#xd9;" horiz-adv-x="756" 
d="M683 305v395.002h-154v-401c0 -56 -13.333 -98 -40 -126s-63.667 -42 -111 -42s-84.333 14.5 -111 43.5s-40 72.167 -40 129.5v396h-154v-400c0 -103.333 27 -181 81 -233s128 -78 222 -78c46.667 0 89 6.5 127 19.5s70.333 32.667 97 59s47.167 59.166 61.5 98.499
s21.5 85.666 21.5 138.999zM447 750.002l-113 177l-131 -57l128 -120h116z" />
    <glyph glyph-name="Uacute" unicode="&#xda;" horiz-adv-x="756" 
d="M683 305v395.002h-154v-401c0 -56 -13.333 -98 -40 -126s-63.667 -42 -111 -42s-84.333 14.5 -111 43.5s-40 72.167 -40 129.5v396h-154v-400c0 -103.333 27 -181 81 -233s128 -78 222 -78c46.667 0 89 6.5 127 19.5s70.333 32.667 97 59s47.167 59.166 61.5 98.499
s21.5 85.666 21.5 138.999zM425 750.002l128 120l-131 57l-113 -177h116z" />
    <glyph glyph-name="Ucircumflex" unicode="&#xdb;" horiz-adv-x="756" 
d="M683 305v395.002h-154v-401c0 -56 -13.333 -98 -40 -126s-63.667 -42 -111 -42s-84.333 14.5 -111 43.5s-40 72.167 -40 129.5v396h-154v-400c0 -103.333 27 -181 81 -233s128 -78 222 -78c46.667 0 89 6.5 127 19.5s70.333 32.667 97 59s47.167 59.166 61.5 98.499
s21.5 85.666 21.5 138.999zM377 821.002l79 -66h117l-123 157h-144l-123 -157h115z" />
    <glyph glyph-name="Udieresis" unicode="&#xdc;" horiz-adv-x="756" 
d="M683 305v395.002h-154v-401c0 -56 -13.333 -98 -40 -126s-63.667 -42 -111 -42s-84.333 14.5 -111 43.5s-40 72.167 -40 129.5v396h-154v-400c0 -103.333 27 -181 81 -233s128 -78 222 -78c46.667 0 89 6.5 127 19.5s70.333 32.667 97 59s47.167 59.166 61.5 98.499
s21.5 85.666 21.5 138.999zM558 755.002v135h-146v-135h146zM344 755.002v135h-146v-135h146z" />
    <glyph glyph-name="Yacute" unicode="&#xdd;" horiz-adv-x="716" 
d="M704 700h-175l-170 -281l-167 281h-180l269 -424v-276h154v279zM415 750l128 120l-131 57l-113 -177h116z" />
    <glyph glyph-name="Thorn" unicode="&#xde;" horiz-adv-x="673" 
d="M638 355c0 36 -6.16699 69 -18.5 99s-30 55.667 -53 77s-51 37.833 -84 49.5s-70.5 17.5 -112.5 17.5h-132v102h-154v-700h154v108h117c39.333 0 76.166 5.16699 110.499 15.5s64.333 25.833 90 46.5s45.834 46.5 60.501 77.5s22 66.833 22 107.5zM482 352
c0 -31.333 -10.667 -57 -32 -77s-51.333 -30 -90 -30h-122v214h119c38.667 0 69.167 -9 91.5 -27s33.5 -44.667 33.5 -80z" />
    <glyph glyph-name="germandbls" unicode="&#xdf;" horiz-adv-x="620" 
d="M537 542c0 27.333 -4.83398 52.833 -14.501 76.5s-24 44.334 -43 62.001s-42.333 31.5 -70 41.5s-59.5 15 -95.5 15c-37.333 0 -71.166 -5.33301 -101.499 -16s-56.166 -26 -77.499 -46s-37.833 -44.5 -49.5 -73.5s-17.5 -61.833 -17.5 -98.5v-503h151v509
c0 30.667 8.16699 55 24.5 73s37.5 27 63.5 27c24.667 0 44.167 -7.16699 58.5 -21.5s21.5 -34.166 21.5 -59.499c0 -28 -8.5 -52 -25.5 -72s-37.833 -37.667 -62.5 -53v-100c36.667 -5.33301 67.167 -16 91.5 -32s36.5 -38 36.5 -66c0 -29.333 -11 -51.666 -33 -66.999
s-53.667 -24 -95 -26v-114c42 -2 80.167 1.16699 114.5 9.5s63.666 21.166 87.999 38.499s43 39 56 65s19.5 55.667 19.5 89c0 24 -3.66699 45.5 -11 64.5s-17 35.667 -29 50s-25.833 26.666 -41.5 36.999s-32.167 19.166 -49.5 26.499c12.667 8.66699 24.5 18 35.5 28
s20.667 21.5 29 34.5s14.833 27.667 19.5 44s7 35.5 7 57.5z" />
    <glyph glyph-name="agrave" unicode="&#xe0;" horiz-adv-x="592" 
d="M529 0l-0.000976562 310.998c0 72.667 -19 129.334 -57 170.001s-98.667 61 -182 61c-45.333 0 -84 -4 -116 -12s-62.667 -18.333 -92 -31l38 -116c24.667 9.33301 48.167 16.5 70.5 21.5s48.166 7.5 77.499 7.5c38 0 66.667 -8.33301 86 -25s29 -41 29 -73v-9
c-19.333 6.66699 -39.166 12 -59.499 16s-44.166 6 -71.499 6c-32 0 -61.167 -3.5 -87.5 -10.5s-49 -17.5 -68 -31.5s-33.833 -31.667 -44.5 -53s-16 -46.666 -16 -75.999v-2c0 -26.667 4.83301 -50.167 14.5 -70.5s22.834 -37.5 39.501 -51.5s36.167 -24.5 58.5 -31.5
s46.166 -10.5 71.499 -10.5c37.333 0 69 6.16699 95 18.5s48.333 28.833 67 49.5v-58h147zM384.999 188.998c0 -28 -10.833 -50.667 -32.5 -68s-50.5 -26 -86.5 -26c-24.667 0 -44.667 5.66699 -60 17s-23 27.333 -23 48v2c0 24 9.33301 42.333 28 55s44.334 19 77.001 19
c18.667 0 36.167 -1.83301 52.5 -5.5s31.166 -8.5 44.499 -14.5v-27zM369.999 594.998l-113 177l-131 -57l128 -120h116z" />
    <glyph glyph-name="aacute" unicode="&#xe1;" horiz-adv-x="592" 
d="M529 0l-0.000976562 310.998c0 72.667 -19 129.334 -57 170.001s-98.667 61 -182 61c-45.333 0 -84 -4 -116 -12s-62.667 -18.333 -92 -31l38 -116c24.667 9.33301 48.167 16.5 70.5 21.5s48.166 7.5 77.499 7.5c38 0 66.667 -8.33301 86 -25s29 -41 29 -73v-9
c-19.333 6.66699 -39.166 12 -59.499 16s-44.166 6 -71.499 6c-32 0 -61.167 -3.5 -87.5 -10.5s-49 -17.5 -68 -31.5s-33.833 -31.667 -44.5 -53s-16 -46.666 -16 -75.999v-2c0 -26.667 4.83301 -50.167 14.5 -70.5s22.834 -37.5 39.501 -51.5s36.167 -24.5 58.5 -31.5
s46.166 -10.5 71.499 -10.5c37.333 0 69 6.16699 95 18.5s48.333 28.833 67 49.5v-58h147zM384.999 188.998c0 -28 -10.833 -50.667 -32.5 -68s-50.5 -26 -86.5 -26c-24.667 0 -44.667 5.66699 -60 17s-23 27.333 -23 48v2c0 24 9.33301 42.333 28 55s44.334 19 77.001 19
c18.667 0 36.167 -1.83301 52.5 -5.5s31.166 -8.5 44.499 -14.5v-27zM342.999 594.998l128 120l-131 57l-113 -177h116z" />
    <glyph glyph-name="acircumflex" unicode="&#xe2;" horiz-adv-x="592" 
d="M529 0l-0.000976562 310.998c0 72.667 -19 129.334 -57 170.001s-98.667 61 -182 61c-45.333 0 -84 -4 -116 -12s-62.667 -18.333 -92 -31l38 -116c24.667 9.33301 48.167 16.5 70.5 21.5s48.166 7.5 77.499 7.5c38 0 66.667 -8.33301 86 -25s29 -41 29 -73v-9
c-19.333 6.66699 -39.166 12 -59.499 16s-44.166 6 -71.499 6c-32 0 -61.167 -3.5 -87.5 -10.5s-49 -17.5 -68 -31.5s-33.833 -31.667 -44.5 -53s-16 -46.666 -16 -75.999v-2c0 -26.667 4.83301 -50.167 14.5 -70.5s22.834 -37.5 39.501 -51.5s36.167 -24.5 58.5 -31.5
s46.166 -10.5 71.499 -10.5c37.333 0 69 6.16699 95 18.5s48.333 28.833 67 49.5v-58h147zM384.999 188.998c0 -28 -10.833 -50.667 -32.5 -68s-50.5 -26 -86.5 -26c-24.667 0 -44.667 5.66699 -60 17s-23 27.333 -23 48v2c0 24 9.33301 42.333 28 55s44.334 19 77.001 19
c18.667 0 36.167 -1.83301 52.5 -5.5s31.166 -8.5 44.499 -14.5v-27zM292.999 660.998l79 -66h117l-123 157h-144l-123 -157h115z" />
    <glyph glyph-name="atilde" unicode="&#xe3;" horiz-adv-x="592" 
d="M529 0l-0.000976562 310.998c0 72.667 -19 129.334 -57 170.001s-98.667 61 -182 61c-45.333 0 -84 -4 -116 -12s-62.667 -18.333 -92 -31l38 -116c24.667 9.33301 48.167 16.5 70.5 21.5s48.166 7.5 77.499 7.5c38 0 66.667 -8.33301 86 -25s29 -41 29 -73v-9
c-19.333 6.66699 -39.166 12 -59.499 16s-44.166 6 -71.499 6c-32 0 -61.167 -3.5 -87.5 -10.5s-49 -17.5 -68 -31.5s-33.833 -31.667 -44.5 -53s-16 -46.666 -16 -75.999v-2c0 -26.667 4.83301 -50.167 14.5 -70.5s22.834 -37.5 39.501 -51.5s36.167 -24.5 58.5 -31.5
s46.166 -10.5 71.499 -10.5c37.333 0 69 6.16699 95 18.5s48.333 28.833 67 49.5v-58h147zM384.999 188.998c0 -28 -10.833 -50.667 -32.5 -68s-50.5 -26 -86.5 -26c-24.667 0 -44.667 5.66699 -60 17s-23 27.333 -23 48v2c0 24 9.33301 42.333 28 55s44.334 19 77.001 19
c18.667 0 36.167 -1.83301 52.5 -5.5s31.166 -8.5 44.499 -14.5v-27zM501.999 732.998l-80.999 25c-7.33301 -16 -14.833 -28.167 -22.5 -36.5s-19.167 -12.5 -34.5 -12.5c-9.33301 0 -19.333 2 -30 6l-35 13.5c-12.667 5 -26.167 9.5 -40.5 13.5s-29.166 6 -44.499 6
c-17.333 0 -32.5 -3.33301 -45.5 -10s-24.333 -16 -34 -28s-18 -26.5 -25 -43.5s-13.5 -35.833 -19.5 -56.5l81 -25c7.33301 16 14.833 28.167 22.5 36.5s19.167 12.5 34.5 12.5c8.66699 0 18.5 -2 29.5 -6l35.5 -13.5c12.667 -5 26.167 -9.5 40.5 -13.5
s29.166 -6 44.499 -6c34.667 0 61.167 12.5 79.5 37.5s33.166 58.5 44.499 100.5z" />
    <glyph glyph-name="adieresis" unicode="&#xe4;" horiz-adv-x="592" 
d="M529 0l-0.000976562 310.998c0 72.667 -19 129.334 -57 170.001s-98.667 61 -182 61c-45.333 0 -84 -4 -116 -12s-62.667 -18.333 -92 -31l38 -116c24.667 9.33301 48.167 16.5 70.5 21.5s48.166 7.5 77.499 7.5c38 0 66.667 -8.33301 86 -25s29 -41 29 -73v-9
c-19.333 6.66699 -39.166 12 -59.499 16s-44.166 6 -71.499 6c-32 0 -61.167 -3.5 -87.5 -10.5s-49 -17.5 -68 -31.5s-33.833 -31.667 -44.5 -53s-16 -46.666 -16 -75.999v-2c0 -26.667 4.83301 -50.167 14.5 -70.5s22.834 -37.5 39.501 -51.5s36.167 -24.5 58.5 -31.5
s46.166 -10.5 71.499 -10.5c37.333 0 69 6.16699 95 18.5s48.333 28.833 67 49.5v-58h147zM384.999 188.998c0 -28 -10.833 -50.667 -32.5 -68s-50.5 -26 -86.5 -26c-24.667 0 -44.667 5.66699 -60 17s-23 27.333 -23 48v2c0 24 9.33301 42.333 28 55s44.334 19 77.001 19
c18.667 0 36.167 -1.83301 52.5 -5.5s31.166 -8.5 44.499 -14.5v-27zM473.999 594.998v135h-146v-135h146zM259.999 594.998v135h-146v-135h146z" />
    <glyph glyph-name="aring" unicode="&#xe5;" horiz-adv-x="592" 
d="M529 0l-0.000976562 310.998c0 72.667 -19 129.334 -57 170.001s-98.667 61 -182 61c-45.333 0 -84 -4 -116 -12s-62.667 -18.333 -92 -31l38 -116c24.667 9.33301 48.167 16.5 70.5 21.5s48.166 7.5 77.499 7.5c38 0 66.667 -8.33301 86 -25s29 -41 29 -73v-9
c-19.333 6.66699 -39.166 12 -59.499 16s-44.166 6 -71.499 6c-32 0 -61.167 -3.5 -87.5 -10.5s-49 -17.5 -68 -31.5s-33.833 -31.667 -44.5 -53s-16 -46.666 -16 -75.999v-2c0 -26.667 4.83301 -50.167 14.5 -70.5s22.834 -37.5 39.501 -51.5s36.167 -24.5 58.5 -31.5
s46.166 -10.5 71.499 -10.5c37.333 0 69 6.16699 95 18.5s48.333 28.833 67 49.5v-58h147zM384.999 188.998c0 -28 -10.833 -50.667 -32.5 -68s-50.5 -26 -86.5 -26c-24.667 0 -44.667 5.66699 -60 17s-23 27.333 -23 48v2c0 24 9.33301 42.333 28 55s44.334 19 77.001 19
c18.667 0 36.167 -1.83301 52.5 -5.5s31.166 -8.5 44.499 -14.5v-27zM414.999 709.998c0 16 -3.33301 31.167 -10 45.5s-15.5 26.666 -26.5 36.999s-23.833 18.666 -38.5 24.999s-30 9.5 -46 9.5s-31.333 -3.16699 -46 -9.5s-27.5 -14.666 -38.5 -24.999
s-19.833 -22.666 -26.5 -36.999s-10 -29.5 -10 -45.5s3.33301 -31.167 10 -45.5s15.5 -26.666 26.5 -36.999s23.833 -18.666 38.5 -24.999s30 -9.5 46 -9.5s31.333 3.16699 46 9.5s27.5 14.666 38.5 24.999s19.833 22.666 26.5 36.999s10 29.5 10 45.5zM355.999 709.998
c0 -17.333 -6 -32 -18 -44s-26.667 -18 -44 -18s-32 6 -44 18s-18 26.667 -18 44s6 32 18 44s26.667 18 44 18s32 -6 44 -18s18 -26.667 18 -44z" />
    <glyph glyph-name="ae" unicode="&#xe6;" horiz-adv-x="951" 
d="M456 69c25.333 -25.333 55.3311 -45.167 89.998 -59.5s72.667 -21.5 114 -21.5c48.667 0 91 8.83301 127 26.5s66.667 42.167 92 73.5l-87 77c-21.333 -19.333 -42 -33.333 -62 -42s-42.667 -13 -68 -13c-34 0 -62.333 8.83301 -85 26.5s-38 43.834 -46 78.501h373
c0.666992 7.33301 1.16699 13.833 1.5 19.5s0.5 12.167 0.5 19.5c0 38 -5.16699 74.667 -15.5 110s-26.166 66.5 -47.499 93.5s-48 48.5 -80 64.5s-70 24 -114 24c-36.667 0 -69.834 -6.33301 -99.501 -19s-55.5 -30.334 -77.5 -53.001c-18 22 -41.833 38.833 -71.5 50.5
s-66.5 17.5 -110.5 17.5c-45.333 0 -84 -4 -116 -12s-62.667 -18.333 -92 -31l38 -116c24.667 9.33301 48.167 16.5 70.5 21.5s48.166 7.5 77.499 7.5c38 0 66.667 -8.33301 86 -25s29 -41 29 -73v-9c-19.333 6.66699 -39.166 12 -59.499 16s-44.166 6 -71.499 6
c-32 0 -61.167 -3.5 -87.5 -10.5s-49 -17.5 -68 -31.5s-33.833 -31.667 -44.5 -53s-16 -46.333 -16 -75c0 -26.667 5 -50.334 15 -71.001s23.833 -38.167 41.5 -52.5s38.834 -25.166 63.501 -32.499s52 -11 82 -11c42.667 0 82 7.5 118 22.5s69.333 33.833 100 56.5z
M528.998 309.999c6 34.667 18.833 62.333 38.5 83s45.5 31 77.5 31s57.667 -10.5 77 -31.5s31.333 -48.5 36 -82.5h-229zM383.998 216.998c1.33301 -12.667 3.66699 -24.667 7 -36s7.33301 -22.333 12 -33c-22.667 -17.333 -45.5 -30.166 -68.5 -38.499
s-45.833 -12.5 -68.5 -12.5c-24.667 0 -44.667 5.66699 -60 17s-23 27.666 -23 48.999c0 24.667 9.33301 43 28 55s44.334 18 77.001 18c18 0 35.167 -1.83301 51.5 -5.5s31.166 -8.16699 44.499 -13.5z" />
    <glyph glyph-name="ccedilla" unicode="&#xe7;" horiz-adv-x="571" 
d="M236 0l-82 -120.006l127 -53l65 162c46 3.33301 83.833 13.833 113.5 31.5s56.5 39.5 80.5 65.5l-89 90c-18.667 -17.333 -37.5 -31.166 -56.5 -41.499s-41.167 -15.5 -66.5 -15.5c-20.667 0 -39.334 3.83301 -56.001 11.5s-31 18.334 -43 32.001
s-21.167 29.5 -27.5 47.5s-9.5 37.333 -9.5 58c0 20 3.16699 38.833 9.5 56.5s15.333 33.334 27 47.001s25.334 24.334 41.001 32.001s33.167 11.5 52.5 11.5c27.333 0 50.166 -5.33301 68.499 -16s36.166 -25 53.499 -43l93 100c-25.333 28 -54.666 50 -87.999 66
s-75.333 24 -126 24c-41.333 0 -79.166 -7.33301 -113.499 -22s-63.833 -34.667 -88.5 -60s-44 -55 -58 -89s-21 -70.333 -21 -109c0 -31.333 4.66699 -61.166 14 -89.499s22.5 -54.166 39.5 -77.499s37.333 -43.5 61 -60.5s50.167 -29.833 79.5 -38.5z" />
    <glyph glyph-name="egrave" unicode="&#xe8;" horiz-adv-x="613" 
d="M568 253v2.00195c0 38 -5.16699 74.5 -15.5 109.5s-26.333 66 -48 93s-48.834 48.5 -81.501 64.5s-71.334 24 -116.001 24c-39.333 0 -75.166 -7.33301 -107.499 -22s-60.166 -34.667 -83.499 -60s-41.5 -55 -54.5 -89s-19.5 -70 -19.5 -108v-2
c0 -41.333 7 -78.833 21 -112.5s33.5 -62.834 58.5 -87.501s54.667 -43.667 89 -57s71.5 -20 111.5 -20c48.667 0 91 8.83301 127 26.5s66.667 42.167 92 73.5l-87 77c-21.333 -19.333 -42 -33.333 -62 -42s-42.667 -13 -68 -13c-34 0 -62.5 8.83301 -85.5 26.5
s-38.167 43.834 -45.5 78.501h373c0.666992 7.33301 1.16699 13.666 1.5 18.999s0.5 11.666 0.5 18.999zM420 310.002l-229 -0.000976562c6 34.667 18.833 62.334 38.5 83.001s45.5 31 77.5 31s57.667 -10.5 77 -31.5s31.333 -48.5 36 -82.5zM366 595.001l-113 177l-131 -57
l128 -120h116z" />
    <glyph glyph-name="eacute" unicode="&#xe9;" horiz-adv-x="613" 
d="M568 253v2.00195c0 38 -5.16699 74.5 -15.5 109.5s-26.333 66 -48 93s-48.834 48.5 -81.501 64.5s-71.334 24 -116.001 24c-39.333 0 -75.166 -7.33301 -107.499 -22s-60.166 -34.667 -83.499 -60s-41.5 -55 -54.5 -89s-19.5 -70 -19.5 -108v-2
c0 -41.333 7 -78.833 21 -112.5s33.5 -62.834 58.5 -87.501s54.667 -43.667 89 -57s71.5 -20 111.5 -20c48.667 0 91 8.83301 127 26.5s66.667 42.167 92 73.5l-87 77c-21.333 -19.333 -42 -33.333 -62 -42s-42.667 -13 -68 -13c-34 0 -62.5 8.83301 -85.5 26.5
s-38.167 43.834 -45.5 78.501h373c0.666992 7.33301 1.16699 13.666 1.5 18.999s0.5 11.666 0.5 18.999zM420 310.002l-229 -0.000976562c6 34.667 18.833 62.334 38.5 83.001s45.5 31 77.5 31s57.667 -10.5 77 -31.5s31.333 -48.5 36 -82.5zM362 595.001l128 120l-131 57
l-113 -177h116z" />
    <glyph glyph-name="ecircumflex" unicode="&#xea;" horiz-adv-x="613" 
d="M568 253v2.00195c0 38 -5.16699 74.5 -15.5 109.5s-26.333 66 -48 93s-48.834 48.5 -81.501 64.5s-71.334 24 -116.001 24c-39.333 0 -75.166 -7.33301 -107.499 -22s-60.166 -34.667 -83.499 -60s-41.5 -55 -54.5 -89s-19.5 -70 -19.5 -108v-2
c0 -41.333 7 -78.833 21 -112.5s33.5 -62.834 58.5 -87.501s54.667 -43.667 89 -57s71.5 -20 111.5 -20c48.667 0 91 8.83301 127 26.5s66.667 42.167 92 73.5l-87 77c-21.333 -19.333 -42 -33.333 -62 -42s-42.667 -13 -68 -13c-34 0 -62.5 8.83301 -85.5 26.5
s-38.167 43.834 -45.5 78.501h373c0.666992 7.33301 1.16699 13.666 1.5 18.999s0.5 11.666 0.5 18.999zM420 310.002l-229 -0.000976562c6 34.667 18.833 62.334 38.5 83.001s45.5 31 77.5 31s57.667 -10.5 77 -31.5s31.333 -48.5 36 -82.5zM305 661.001l79 -66h117
l-123 157h-144l-123 -157h115z" />
    <glyph glyph-name="edieresis" unicode="&#xeb;" horiz-adv-x="613" 
d="M568 253v2.00195c0 38 -5.16699 74.5 -15.5 109.5s-26.333 66 -48 93s-48.834 48.5 -81.501 64.5s-71.334 24 -116.001 24c-39.333 0 -75.166 -7.33301 -107.499 -22s-60.166 -34.667 -83.499 -60s-41.5 -55 -54.5 -89s-19.5 -70 -19.5 -108v-2
c0 -41.333 7 -78.833 21 -112.5s33.5 -62.834 58.5 -87.501s54.667 -43.667 89 -57s71.5 -20 111.5 -20c48.667 0 91 8.83301 127 26.5s66.667 42.167 92 73.5l-87 77c-21.333 -19.333 -42 -33.333 -62 -42s-42.667 -13 -68 -13c-34 0 -62.5 8.83301 -85.5 26.5
s-38.167 43.834 -45.5 78.501h373c0.666992 7.33301 1.16699 13.666 1.5 18.999s0.5 11.666 0.5 18.999zM420 310.002l-229 -0.000976562c6 34.667 18.833 62.334 38.5 83.001s45.5 31 77.5 31s57.667 -10.5 77 -31.5s31.333 -48.5 36 -82.5zM486 595.001v135h-146v-135h146
zM272 595.001v135h-146v-135h146z" />
    <glyph glyph-name="igrave" unicode="&#xec;" horiz-adv-x="302" 
d="M227 0v536h-152v-536h152zM320 595l-113 177l-131 -57l128 -120h116z" />
    <glyph glyph-name="iacute" unicode="&#xed;" horiz-adv-x="302" 
d="M227 0v536h-152v-536h152zM202 595l128 120l-131 57l-113 -177h116z" />
    <glyph glyph-name="icircumflex" unicode="&#xee;" horiz-adv-x="302" 
d="M227 0v536h-152v-536h152zM269 661l79 -66h117l-123 157h-144l-123 -157h115z" />
    <glyph glyph-name="idieresis" unicode="&#xef;" horiz-adv-x="302" 
d="M227 0v536h-152v-536h152zM435 595v135h-146v-135h146zM221 595v135h-146v-135h146z" />
    <glyph glyph-name="eth" unicode="&#xf0;" horiz-adv-x="648" 
d="M307 570l86.998 -115.997c-21.333 11.333 -41.333 19.5 -60 24.5s-39.667 7.5 -63 7.5c-33.333 0 -64 -5.66699 -92 -17s-52.167 -27.333 -72.5 -48s-36.166 -45.5 -47.499 -74.5s-17 -60.833 -17 -95.5c0 -36.667 7 -71 21 -103s33.167 -59.833 57.5 -83.5
s53.5 -42.334 87.5 -56.001s71 -20.5 111 -20.5c44.667 0 84.667 7.33301 120 22s65.333 34.5 90 59.5s43.334 54.167 56.001 87.5s19 68.666 19 105.999c0 21.333 -1.66699 42 -5 62s-8.5 39.667 -15.5 59s-16 39.166 -27 59.499s-24.5 41.5 -40.5 63.5l-81 115l102 41
l-55 75l-100 -41l-23 33h-171l64 -86l-115 -46l56 -75zM455.998 248.003c0 -18.667 -2.99902 -36.0029 -8.99902 -52.0029s-14.667 -30 -26 -42s-25.166 -21.333 -41.499 -28s-34.833 -10 -55.5 -10c-20 0 -38.167 3.5 -54.5 10.5s-30.5 16.5 -42.5 28.5
s-21.167 26 -27.5 42s-9.5 33 -9.5 51c0 18.667 3.16699 35.834 9.5 51.501s15.166 29.334 26.499 41.001s25.333 20.834 42 27.501s35 10 55 10s38.333 -3.33301 55 -10s30.667 -16 42 -28s20.166 -25.833 26.499 -41.5s9.5 -32.5 9.5 -50.5z" />
    <glyph glyph-name="ntilde" unicode="&#xf1;" horiz-adv-x="623" 
d="M559 0l-0.000976562 346.999c0 62 -15.833 110.667 -47.5 146s-76.5 53 -134.5 53c-19.333 0 -36.666 -2.33301 -51.999 -7s-29.333 -11 -42 -19s-24.167 -17.167 -34.5 -27.5s-19.833 -21.166 -28.5 -32.499v76h-152v-536h152v299c0 36 8.5 63.167 25.5 81.5
s40.167 27.5 69.5 27.5s52 -9.16699 68 -27.5s24 -45.5 24 -81.5v-299h152zM521.999 732.999l-80.999 25c-7.33301 -16 -14.833 -28.167 -22.5 -36.5s-19.167 -12.5 -34.5 -12.5c-9.33301 0 -19.333 2 -30 6l-35 13.5c-12.667 5 -26.167 9.5 -40.5 13.5s-29.166 6 -44.499 6
c-17.333 0 -32.5 -3.33301 -45.5 -10s-24.333 -16 -34 -28s-18 -26.5 -25 -43.5s-13.5 -35.833 -19.5 -56.5l81 -25c7.33301 16 14.833 28.167 22.5 36.5s19.167 12.5 34.5 12.5c8.66699 0 18.5 -2 29.5 -6l35.5 -13.5c12.667 -5 26.167 -9.5 40.5 -13.5
s29.166 -6 44.499 -6c34.667 0 61.167 12.5 79.5 37.5s33.166 58.5 44.499 100.5z" />
    <glyph glyph-name="ograve" unicode="&#xf2;" horiz-adv-x="664" 
d="M622 267v2c0 38.667 -7.33301 74.834 -22 108.501s-34.834 63 -60.501 88s-56.167 44.667 -91.5 59s-73.666 21.5 -114.999 21.5c-42 0 -80.667 -7.33301 -116 -22s-66 -34.667 -92 -60s-46.333 -54.833 -61 -88.5s-22 -69.834 -22 -108.501v-2
c0 -38.667 7.33301 -74.834 22 -108.501s34.834 -63 60.501 -88s56.167 -44.667 91.5 -59s73.666 -21.5 114.999 -21.5c42 0 80.667 7.33301 116 22s66 34.667 92 60s46.333 54.833 61 88.5s22 69.834 22 108.501zM472 265c0 -20 -3.16699 -38.833 -9.5 -56.5
s-15.5 -33.167 -27.5 -46.5s-26.5 -23.833 -43.5 -31.5s-36.5 -11.5 -58.5 -11.5c-21.333 0 -40.5 4 -57.5 12s-31.833 18.833 -44.5 32.5s-22.334 29.334 -29.001 47.001s-10 36.5 -10 56.5v2c0 20 3.16699 38.833 9.5 56.5s15.5 33.167 27.5 46.5s26.5 23.833 43.5 31.5
s36.5 11.5 58.5 11.5c20.667 0 39.667 -4 57 -12s32.333 -18.833 45 -32.5s22.334 -29.334 29.001 -47.001s10 -36.5 10 -56.5v-2zM390 595l-113 177l-131 -57l128 -120h116z" />
    <glyph glyph-name="oacute" unicode="&#xf3;" horiz-adv-x="664" 
d="M622 267v2c0 38.667 -7.33301 74.834 -22 108.501s-34.834 63 -60.501 88s-56.167 44.667 -91.5 59s-73.666 21.5 -114.999 21.5c-42 0 -80.667 -7.33301 -116 -22s-66 -34.667 -92 -60s-46.333 -54.833 -61 -88.5s-22 -69.834 -22 -108.501v-2
c0 -38.667 7.33301 -74.834 22 -108.501s34.834 -63 60.501 -88s56.167 -44.667 91.5 -59s73.666 -21.5 114.999 -21.5c42 0 80.667 7.33301 116 22s66 34.667 92 60s46.333 54.833 61 88.5s22 69.834 22 108.501zM472 265c0 -20 -3.16699 -38.833 -9.5 -56.5
s-15.5 -33.167 -27.5 -46.5s-26.5 -23.833 -43.5 -31.5s-36.5 -11.5 -58.5 -11.5c-21.333 0 -40.5 4 -57.5 12s-31.833 18.833 -44.5 32.5s-22.334 29.334 -29.001 47.001s-10 36.5 -10 56.5v2c0 20 3.16699 38.833 9.5 56.5s15.5 33.167 27.5 46.5s26.5 23.833 43.5 31.5
s36.5 11.5 58.5 11.5c20.667 0 39.667 -4 57 -12s32.333 -18.833 45 -32.5s22.334 -29.334 29.001 -47.001s10 -36.5 10 -56.5v-2zM390 595l128 120l-131 57l-113 -177h116z" />
    <glyph glyph-name="ocircumflex" unicode="&#xf4;" horiz-adv-x="664" 
d="M622 267v2c0 38.667 -7.33301 74.834 -22 108.501s-34.834 63 -60.501 88s-56.167 44.667 -91.5 59s-73.666 21.5 -114.999 21.5c-42 0 -80.667 -7.33301 -116 -22s-66 -34.667 -92 -60s-46.333 -54.833 -61 -88.5s-22 -69.834 -22 -108.501v-2
c0 -38.667 7.33301 -74.834 22 -108.501s34.834 -63 60.501 -88s56.167 -44.667 91.5 -59s73.666 -21.5 114.999 -21.5c42 0 80.667 7.33301 116 22s66 34.667 92 60s46.333 54.833 61 88.5s22 69.834 22 108.501zM472 265c0 -20 -3.16699 -38.833 -9.5 -56.5
s-15.5 -33.167 -27.5 -46.5s-26.5 -23.833 -43.5 -31.5s-36.5 -11.5 -58.5 -11.5c-21.333 0 -40.5 4 -57.5 12s-31.833 18.833 -44.5 32.5s-22.334 29.334 -29.001 47.001s-10 36.5 -10 56.5v2c0 20 3.16699 38.833 9.5 56.5s15.5 33.167 27.5 46.5s26.5 23.833 43.5 31.5
s36.5 11.5 58.5 11.5c20.667 0 39.667 -4 57 -12s32.333 -18.833 45 -32.5s22.334 -29.334 29.001 -47.001s10 -36.5 10 -56.5v-2zM331 661l79 -66h117l-123 157h-144l-123 -157h115z" />
    <glyph glyph-name="otilde" unicode="&#xf5;" horiz-adv-x="664" 
d="M622 267v2c0 38.667 -7.33301 74.834 -22 108.501s-34.834 63 -60.501 88s-56.167 44.667 -91.5 59s-73.666 21.5 -114.999 21.5c-42 0 -80.667 -7.33301 -116 -22s-66 -34.667 -92 -60s-46.333 -54.833 -61 -88.5s-22 -69.834 -22 -108.501v-2
c0 -38.667 7.33301 -74.834 22 -108.501s34.834 -63 60.501 -88s56.167 -44.667 91.5 -59s73.666 -21.5 114.999 -21.5c42 0 80.667 7.33301 116 22s66 34.667 92 60s46.333 54.833 61 88.5s22 69.834 22 108.501zM472 265c0 -20 -3.16699 -38.833 -9.5 -56.5
s-15.5 -33.167 -27.5 -46.5s-26.5 -23.833 -43.5 -31.5s-36.5 -11.5 -58.5 -11.5c-21.333 0 -40.5 4 -57.5 12s-31.833 18.833 -44.5 32.5s-22.334 29.334 -29.001 47.001s-10 36.5 -10 56.5v2c0 20 3.16699 38.833 9.5 56.5s15.5 33.167 27.5 46.5s26.5 23.833 43.5 31.5
s36.5 11.5 58.5 11.5c20.667 0 39.667 -4 57 -12s32.333 -18.833 45 -32.5s22.334 -29.334 29.001 -47.001s10 -36.5 10 -56.5v-2zM538 733l-80.999 25c-7.33301 -16 -14.833 -28.167 -22.5 -36.5s-19.167 -12.5 -34.5 -12.5c-9.33301 0 -19.333 2 -30 6l-35 13.5
c-12.667 5 -26.167 9.5 -40.5 13.5s-29.166 6 -44.499 6c-17.333 0 -32.5 -3.33301 -45.5 -10s-24.333 -16 -34 -28s-18 -26.5 -25 -43.5s-13.5 -35.833 -19.5 -56.5l81 -25c7.33301 16 14.833 28.167 22.5 36.5s19.167 12.5 34.5 12.5c8.66699 0 18.5 -2 29.5 -6
l35.5 -13.5c12.667 -5 26.167 -9.5 40.5 -13.5s29.166 -6 44.499 -6c34.667 0 61.167 12.5 79.5 37.5s33.166 58.5 44.499 100.5z" />
    <glyph glyph-name="odieresis" unicode="&#xf6;" horiz-adv-x="664" 
d="M622 267v2c0 38.667 -7.33301 74.834 -22 108.501s-34.834 63 -60.501 88s-56.167 44.667 -91.5 59s-73.666 21.5 -114.999 21.5c-42 0 -80.667 -7.33301 -116 -22s-66 -34.667 -92 -60s-46.333 -54.833 -61 -88.5s-22 -69.834 -22 -108.501v-2
c0 -38.667 7.33301 -74.834 22 -108.501s34.834 -63 60.501 -88s56.167 -44.667 91.5 -59s73.666 -21.5 114.999 -21.5c42 0 80.667 7.33301 116 22s66 34.667 92 60s46.333 54.833 61 88.5s22 69.834 22 108.501zM472 265c0 -20 -3.16699 -38.833 -9.5 -56.5
s-15.5 -33.167 -27.5 -46.5s-26.5 -23.833 -43.5 -31.5s-36.5 -11.5 -58.5 -11.5c-21.333 0 -40.5 4 -57.5 12s-31.833 18.833 -44.5 32.5s-22.334 29.334 -29.001 47.001s-10 36.5 -10 56.5v2c0 20 3.16699 38.833 9.5 56.5s15.5 33.167 27.5 46.5s26.5 23.833 43.5 31.5
s36.5 11.5 58.5 11.5c20.667 0 39.667 -4 57 -12s32.333 -18.833 45 -32.5s22.334 -29.334 29.001 -47.001s10 -36.5 10 -56.5v-2zM512 595v135h-146v-135h146zM298 595v135h-146v-135h146z" />
    <glyph glyph-name="oslash" unicode="&#xf8;" horiz-adv-x="664" 
d="M622 268c0 34.667 -5.66797 67.167 -17.001 97.5s-27.666 57.833 -48.999 82.5l81 93h-133l-28 -30c-20.667 11.333 -43 20 -67 26s-49.333 9 -76 9c-42 0 -80.667 -7.33301 -116 -22s-66 -34.667 -92 -60s-46.333 -55 -61 -89s-22 -70.333 -22 -109
c0 -34.667 5.66699 -67.167 17 -97.5s27.333 -57.5 48 -81.5l-80 -92h133l27 28c21.333 -11.333 44 -20 68 -26s49.333 -9 76 -9c42 0 80.667 7.33301 116 22s66 34.667 92 60s46.333 55 61 89s22 70.333 22 109zM387.999 407l-184.001 -210.001
c-10.667 22.667 -16 46.334 -16 71.001c0 20.667 3.33301 40.167 10 58.5s16.334 34.333 29.001 48s27.667 24.5 45 32.5s37 12 59 12c20.667 0 39.667 -4 57 -12zM475.998 265.999c0 -20.667 -3.33203 -40.166 -9.99902 -58.499s-16.334 -34.333 -29.001 -48
s-27.667 -24.5 -45 -32.5s-37 -12 -59 -12c-19.333 0 -38 3.66699 -56 11l183 211c10.667 -22.667 16 -46.334 16 -71.001z" />
    <glyph glyph-name="ugrave" unicode="&#xf9;" horiz-adv-x="623" 
d="M555 0l0.000976562 536.001h-152v-299c0 -36 -8.5 -63.167 -25.5 -81.5s-40.167 -27.5 -69.5 -27.5s-52 9.16699 -68 27.5s-24 45.5 -24 81.5v299h-152v-347c0 -62 15.833 -110.667 47.5 -146s76.5 -53 134.5 -53c19.333 0 36.666 2.33301 51.999 7s29.333 11 42 19
s24.167 17.167 34.5 27.5s19.833 21.166 28.5 32.499v-76h152zM385.001 595.001l-113 177l-131 -57l128 -120h116z" />
    <glyph glyph-name="uacute" unicode="&#xfa;" horiz-adv-x="623" 
d="M555 0l0.000976562 536.001h-152v-299c0 -36 -8.5 -63.167 -25.5 -81.5s-40.167 -27.5 -69.5 -27.5s-52 9.16699 -68 27.5s-24 45.5 -24 81.5v299h-152v-347c0 -62 15.833 -110.667 47.5 -146s76.5 -53 134.5 -53c19.333 0 36.666 2.33301 51.999 7s29.333 11 42 19
s24.167 17.167 34.5 27.5s19.833 21.166 28.5 32.499v-76h152zM353.001 595.001l128 120l-131 57l-113 -177h116z" />
    <glyph glyph-name="ucircumflex" unicode="&#xfb;" horiz-adv-x="623" 
d="M555 0l0.000976562 536.001h-152v-299c0 -36 -8.5 -63.167 -25.5 -81.5s-40.167 -27.5 -69.5 -27.5s-52 9.16699 -68 27.5s-24 45.5 -24 81.5v299h-152v-347c0 -62 15.833 -110.667 47.5 -146s76.5 -53 134.5 -53c19.333 0 36.666 2.33301 51.999 7s29.333 11 42 19
s24.167 17.167 34.5 27.5s19.833 21.166 28.5 32.499v-76h152zM310.001 661.001l79 -66h117l-123 157h-144l-123 -157h115z" />
    <glyph glyph-name="udieresis" unicode="&#xfc;" horiz-adv-x="623" 
d="M555 0l0.000976562 536.001h-152v-299c0 -36 -8.5 -63.167 -25.5 -81.5s-40.167 -27.5 -69.5 -27.5s-52 9.16699 -68 27.5s-24 45.5 -24 81.5v299h-152v-347c0 -62 15.833 -110.667 47.5 -146s76.5 -53 134.5 -53c19.333 0 36.666 2.33301 51.999 7s29.333 11 42 19
s24.167 17.167 34.5 27.5s19.833 21.166 28.5 32.499v-76h152zM491.001 595.001v135h-146v-135h146zM277.001 595.001v135h-146v-135h146z" />
    <glyph glyph-name="yacute" unicode="&#xfd;" horiz-adv-x="600" 
d="M578 536h-157.998l-117 -365l-122 365h-161l210 -538c-6.66699 -13.333 -13.834 -22.5 -21.501 -27.5s-18.167 -7.5 -31.5 -7.5c-10 0 -20.833 2 -32.5 6s-22.5 9 -32.5 15l-51 -110c19.333 -11.333 39.666 -20.333 60.999 -27s46 -10 74 -10
c22.667 0 42.667 2.66699 60 8s32.833 14 46.5 26s26.167 27.5 37.5 46.5s22 42.167 32 69.5zM345.002 595l128 120l-131 57l-113 -177h116z" />
    <glyph glyph-name="thorn" unicode="&#xfe;" horiz-adv-x="675" 
d="M631 268c0 44.667 -6.83203 84.332 -20.499 118.999s-31.834 63.834 -54.501 87.501s-48.667 41.5 -78 53.5s-59.666 18 -90.999 18c-40 0 -73.167 -8.16699 -99.5 -24.5s-48.833 -37.166 -67.5 -62.499v271h-152v-890h152v230c18 -21.333 40.167 -40 66.5 -56
s59.833 -24 100.5 -24c32 0 62.667 6 92 18s55.166 29.833 77.499 53.5s40.333 52.667 54 87s20.5 74.166 20.5 119.499zM479.001 267.998c0 -22.667 -3.5 -43.167 -10.5 -61.5s-16.5 -34 -28.5 -47s-25.833 -23 -41.5 -30s-32.5 -10.5 -50.5 -10.5s-34.833 3.5 -50.5 10.5
s-29.334 17 -41.001 30s-21 28.667 -28 47s-10.5 38.833 -10.5 61.5s3.5 43.167 10.5 61.5s16.333 34 28 47s25.334 23 41.001 30s32.5 10.5 50.5 10.5s34.833 -3.5 50.5 -10.5s29.5 -17 41.5 -30s21.5 -28.667 28.5 -47s10.5 -38.833 10.5 -61.5z" />
    <glyph glyph-name="ydieresis" unicode="&#xff;" horiz-adv-x="600" 
d="M578 536h-157.998l-117 -365l-122 365h-161l210 -538c-6.66699 -13.333 -13.834 -22.5 -21.501 -27.5s-18.167 -7.5 -31.5 -7.5c-10 0 -20.833 2 -32.5 6s-22.5 9 -32.5 15l-51 -110c19.333 -11.333 39.666 -20.333 60.999 -27s46 -10 74 -10
c22.667 0 42.667 2.66699 60 8s32.833 14 46.5 26s26.167 27.5 37.5 46.5s22 42.167 32 69.5zM480.002 595v135h-146v-135h146zM266.002 595v135h-146v-135h146z" />
    <glyph glyph-name="dotlessi" unicode="&#x131;" horiz-adv-x="302" 
d="M227 0v536h-152v-536h152z" />
    <glyph glyph-name="Lslash" unicode="&#x141;" horiz-adv-x="649" 
d="M617 0v140h-351v168l192 57v143l-192 -57v249h-152v-295l-75 -22v-143l75 22v-262h503z" />
    <glyph glyph-name="lslash" unicode="&#x142;" horiz-adv-x="362" 
d="M256 324l76 23v143l-76 -23v263h-150v-307l-76 -23v-143l76 23v-280h150v324z" />
    <glyph glyph-name="OE" unicode="&#x152;" horiz-adv-x="1075" 
d="M1022 0v137.001h-355v147h305v137h-305v142h350v137h-592c-55.333 0 -105.666 -9 -150.999 -27s-84.5 -42.833 -117.5 -74.5s-58.5 -68.834 -76.5 -111.501s-27 -88.667 -27 -138s9 -95.333 27 -138s43.5 -79.667 76.5 -111s72.167 -55.833 117.5 -73.5
s95.666 -26.5 150.999 -26.5h597zM514 139.001l-89 -0.000976562c-31.333 0 -60 5.16699 -86 15.5s-48.333 24.833 -67 43.5s-33 41 -43 67s-15 54.667 -15 86s5 59.833 15 85.5s24.333 47.834 43 66.501s41 33 67 43s54.667 15 86 15h89v-422z" />
    <glyph glyph-name="oe" unicode="&#x153;" horiz-adv-x="1033" 
d="M532 83c23.333 -30 52.832 -53.334 88.499 -70.001s76.167 -25 121.5 -25c48.667 0 91 8.83301 127 26.5s66.667 42.167 92 73.5l-87 77c-21.333 -19.333 -42 -33.333 -62 -42s-42.667 -13 -68 -13c-34 0 -62.333 8.83301 -85 26.5s-38 43.834 -46 78.501h373
c0.666992 7.33301 1.16699 13.833 1.5 19.5s0.5 12.167 0.5 19.5c0 38 -5.16699 74.667 -15.5 110s-26.166 66.5 -47.499 93.5s-48 48.5 -80 64.5s-70 24 -114 24c-42 0 -79.667 -8.5 -113 -25.5s-61 -39.833 -83 -68.5c-24.667 29.333 -54.5 52.333 -89.5 69
s-74.167 25 -117.5 25c-40 0 -77.333 -7.33301 -112 -22s-64.834 -34.667 -90.501 -60s-46 -55 -61 -89s-22.5 -70.333 -22.5 -109s7.33301 -75 22 -109s34.834 -63.5 60.501 -88.5s55.5 -44.667 89.5 -59s70 -21.5 108 -21.5c43.333 0 83 8.5 119 25.5
s66.333 40.167 91 69.5zM610.999 309.999c6 34.667 18.833 62.333 38.5 83s45.5 31 77.5 31s57.667 -10.5 77 -31.5s31.333 -48.5 36 -82.5h-229zM461.999 265.998c0 -20 -2.99707 -38.833 -8.99707 -56.5s-14.833 -33.334 -26.5 -47.001s-25.834 -24.334 -42.501 -32.001
s-35.334 -11.5 -56.001 -11.5c-20 0 -38.333 4 -55 12s-31 18.667 -43 32s-21.333 29.166 -28 47.499s-10 37.5 -10 57.5s3 38.833 9 56.5s14.833 33.334 26.5 47.001s25.667 24.334 42 32.001s35.166 11.5 56.499 11.5c20 0 38.333 -4 55 -12s31 -18.667 43 -32
s21.333 -29.166 28 -47.499s10 -37.5 10 -57.5z" />
    <glyph glyph-name="Scaron" unicode="&#x160;" horiz-adv-x="640" 
d="M590 207l0.000976562 2.00586c0 30.667 -4.83301 57 -14.5 79s-24 41.167 -43 57.5s-42.333 30.333 -70 42s-59.167 22.167 -94.5 31.5c-30 8 -54.833 15 -74.5 21s-35.167 12.333 -46.5 19s-19.166 14.167 -23.499 22.5s-6.5 18.166 -6.5 29.499v2
c0 17.333 7.5 31.833 22.5 43.5s37.5 17.5 67.5 17.5s60 -6.16699 90 -18.5s60.667 -29.166 92 -50.499l80 116c-36 28.667 -75.5 50.667 -118.5 66s-90.167 23 -141.5 23c-36 0 -69 -5 -99 -15s-55.833 -24.333 -77.5 -43s-38.5 -40.834 -50.5 -66.501s-18 -54.5 -18 -86.5
v-2c0 -34.667 5.5 -63.667 16.5 -87s26.5 -42.833 46.5 -58.5s44.333 -28.834 73 -39.501s60.667 -20.334 96 -29.001c29.333 -7.33301 53.166 -14.333 71.499 -21s32.666 -13.334 42.999 -20.001s17.333 -13.834 21 -21.501s5.5 -16.5 5.5 -26.5v-2
c0 -20.667 -8.83301 -36.834 -26.5 -48.501s-42.5 -17.5 -74.5 -17.5c-40 0 -76.833 7.66699 -110.5 23s-66.5 36 -98.5 62l-91 -109c42 -38 88.667 -66.167 140 -84.5s103.666 -27.5 156.999 -27.5c38 0 72.667 4.83301 104 14.5s58.333 23.667 81 42s40.334 41 53.001 68
s19 57.833 19 92.5zM318.001 846.006l-79 66h-117l123 -157h144l123 157h-115z" />
    <glyph glyph-name="scaron" unicode="&#x161;" horiz-adv-x="502" 
d="M461 163l0.00195312 1.99902c0 24.667 -5 45.667 -15 63s-22.667 32 -38 44s-32.666 22.167 -51.999 30.5s-38.333 15.5 -57 21.5c-14.667 4.66699 -28.5 9.33398 -41.5 14.001s-24.5 9.5 -34.5 14.5s-18 10.333 -24 16s-9 12.167 -9 19.5v2
c0 10.667 4.66699 19.5 14 26.5s23.333 10.5 42 10.5c19.333 0 41.666 -4.5 66.999 -13.5s51.333 -21.167 78 -36.5l58 105c-29.333 19.333 -61.5 34.5 -96.5 45.5s-69.5 16.5 -103.5 16.5c-27.333 0 -52.833 -3.66699 -76.5 -11s-44.334 -18.333 -62.001 -33
s-31.667 -32.5 -42 -53.5s-15.5 -45.167 -15.5 -72.5v-2c0 -26 4.83301 -48 14.5 -66s22.167 -33.167 37.5 -45.5s32.5 -22.333 51.5 -30s37.833 -14.167 56.5 -19.5l42 -13c13.333 -4 25.166 -8.16699 35.499 -12.5s18.5 -9.5 24.5 -15.5s9 -13 9 -21v-2
c0 -12 -5.16699 -21.667 -15.5 -29s-26.5 -11 -48.5 -11c-25.333 0 -52.5 5.33301 -81.5 16s-58.167 26.667 -87.5 48l-65 -100c36 -28 73.833 -48.5 113.5 -61.5s78.5 -19.5 116.5 -19.5c28.667 0 55.5 3.5 80.5 10.5s46.833 17.5 65.5 31.5s33.167 31.833 43.5 53.5
s15.5 47.5 15.5 77.5zM256.002 685.999l-79 66h-117l123 -157h144l123 157h-115z" />
    <glyph glyph-name="Ydieresis" unicode="&#x178;" horiz-adv-x="716" 
d="M704 700h-175l-170 -281l-167 281h-180l269 -424v-276h154v279zM538 755v135h-146v-135h146zM324 755v135h-146v-135h146z" />
    <glyph glyph-name="Zcaron" unicode="&#x17d;" horiz-adv-x="708" 
d="M646 0v135h-385l385 448v117h-571v-135h373l-385 -448v-117h583zM358 846l-79 66h-117l123 -157h144l123 157h-115z" />
    <glyph glyph-name="zcaron" unicode="&#x17e;" horiz-adv-x="563" 
d="M516 0v123h-278l278 306v107h-457v-123h268l-277 -306v-107h466zM290 686l-79 66h-117l123 -157h144l123 157h-115z" />
    <glyph glyph-name="florin" unicode="&#x192;" horiz-adv-x="536" 
d="M500 567l-0.00195312 126.001c-25.333 8 -58.333 12 -99 12c-60 0 -104.167 -14.333 -132.5 -43s-47.166 -68.334 -56.499 -119.001l-14 -74h-89v-125h67l-28 -163c-4 -22 -11.333 -37.667 -22 -47s-26.667 -14 -48 -14c-12 0 -24.333 1 -37 3v-123
c9.33301 -2 18.333 -3.33301 27 -4s19.334 -1 32.001 -1c28.667 0 54 2.83301 76 8.5s41 15 57 28s29 29.833 39 50.5s17.667 45.667 23 75l33 187h137v125h-115l7 40c4 23.333 12 40.5 24 51.5s29 16.5 51 16.5c10.667 0 21.667 -0.833008 33 -2.5s23 -4.16699 35 -7.5z
" />
    <glyph glyph-name="circumflex" unicode="&#x2c6;" 
d="M249 661l79 -66h117l-123 157h-144l-123 -157h115z" />
    <glyph glyph-name="caron" unicode="&#x2c7;" 
d="M251 686l-79 66h-117l123 -157h144l123 157h-115z" />
    <glyph glyph-name="breve" unicode="&#x2d8;" 
d="M438 752h-102.002c-6 -18 -15.5 -32.5 -28.5 -43.5s-32.167 -16.5 -57.5 -16.5s-44.5 5.5 -57.5 16.5s-22.5 25.5 -28.5 43.5h-102c4.66699 -50.667 23.834 -89.834 57.501 -117.501s77.167 -41.5 130.5 -41.5s96.833 13.833 130.5 41.5s52.834 66.834 57.501 117.501z
" />
    <glyph glyph-name="dotaccent" unicode="&#x2d9;" 
d="M325 595v135h-150v-135h150z" />
    <glyph glyph-name="ring" unicode="&#x2da;" 
d="M371 710c0 16 -3.33301 31.167 -10 45.5s-15.5 26.666 -26.5 36.999s-23.833 18.666 -38.5 24.999s-30 9.5 -46 9.5s-31.333 -3.16699 -46 -9.5s-27.5 -14.666 -38.5 -24.999s-19.833 -22.666 -26.5 -36.999s-10 -29.5 -10 -45.5s3.33301 -31.167 10 -45.5
s15.5 -26.666 26.5 -36.999s23.833 -18.666 38.5 -24.999s30 -9.5 46 -9.5s31.333 3.16699 46 9.5s27.5 14.666 38.5 24.999s19.833 22.666 26.5 36.999s10 29.5 10 45.5zM312 710c0 -17.333 -6 -32 -18 -44s-26.667 -18 -44 -18s-32 6 -44 18s-18 26.667 -18 44s6 32 18 44
s26.667 18 44 18s32 -6 44 -18s18 -26.667 18 -44z" />
    <glyph glyph-name="ogonek" unicode="&#x2db;" 
d="M291 10l-104 -0.00195312c-4.66699 -9.33301 -8.5 -19.666 -11.5 -30.999s-4.5 -22.666 -4.5 -33.999c0 -40 17.333 -69.5 52 -88.5s84 -25.833 148 -20.5v67c-32 2 -54.333 8.66699 -67 20s-19 27.333 -19 48c0 12 2 25 6 39z" />
    <glyph glyph-name="tilde" unicode="&#x2dc;" 
d="M456 733l-80.999 25c-7.33301 -16 -14.833 -28.167 -22.5 -36.5s-19.167 -12.5 -34.5 -12.5c-9.33301 0 -19.333 2 -30 6l-35 13.5c-12.667 5 -26.167 9.5 -40.5 13.5s-29.166 6 -44.499 6c-17.333 0 -32.5 -3.33301 -45.5 -10s-24.333 -16 -34 -28s-18 -26.5 -25 -43.5
s-13.5 -35.833 -19.5 -56.5l81 -25c7.33301 16 14.833 28.167 22.5 36.5s19.167 12.5 34.5 12.5c8.66699 0 18.5 -2 29.5 -6l35.5 -13.5c12.667 -5 26.167 -9.5 40.5 -13.5s29.166 -6 44.499 -6c34.667 0 61.167 12.5 79.5 37.5s33.166 58.5 44.499 100.5z" />
    <glyph glyph-name="hungarumlaut" unicode="&#x2dd;" 
d="M342 595l130 120l-128 57l-113 -177h111zM147 595l128 120l-128 57l-111 -177h111z" />
    <glyph glyph-name="Omega" unicode="&#x3a9;" horiz-adv-x="764" 
d="M626 530v20.999c0 38.667 18.333 58 55 58c13.333 0 25.333 -1.16699 36 -3.5s21.667 -5.5 33 -9.5v126c-14 4.66699 -29.5 8.33398 -46.5 11.001s-37.5 4 -61.5 4c-54 0 -95.167 -13.833 -123.5 -41.5s-42.5 -71.167 -42.5 -130.5v-34h-63v-125h63v-406h152v406h121v124
h-123zM244 529.999v20.999c0 38.667 18.333 58 55 58c13.333 0 25.333 -1.16699 36 -3.5s21.667 -5.5 33 -9.5v126c-14 4.66699 -29.5 8.33398 -46.5 11.001s-37.5 4 -61.5 4c-54 0 -95.167 -13.833 -123.5 -41.5s-42.5 -71.167 -42.5 -130.5v-34h-63v-125h63v-406h152v406
h121v124h-123z" />
    <glyph glyph-name="pi" unicode="&#x3c0;" horiz-adv-x="830" 
d="M777 351c0 49.333 -9.33301 96 -28 140s-44.167 82.333 -76.5 115s-70.5 58.5 -114.5 77.5s-91.333 28.5 -142 28.5s-98.167 -9.66699 -142.5 -29s-82.833 -45.5 -115.5 -78.5s-58.334 -71.5 -77.001 -115.5s-28 -90.667 -28 -140s9.33301 -96 28 -140
s44.167 -82.333 76.5 -115s70.5 -58.5 114.5 -77.5s91.333 -28.5 142 -28.5s98.167 9.66699 142.5 29s82.833 45.5 115.5 78.5s58.334 71.5 77.001 115.5s28 90.667 28 140zM735 351c0 -44.667 -8.16602 -86.5 -24.499 -125.5s-38.833 -73.167 -67.5 -102.5
s-62.5 -52.5 -101.5 -69.5s-81.5 -25.5 -127.5 -25.5c-45.333 0 -87.5 8.33301 -126.5 25s-72.833 39.5 -101.5 68.5s-51 63 -67 102s-24 80.833 -24 125.5s8.16699 86.5 24.5 125.5s38.833 73.167 67.5 102.5s62.5 52.5 101.5 69.5s81.5 25.5 127.5 25.5
c45.333 0 87.5 -8.33301 126.5 -25s72.667 -39.5 101 -68.5s50.666 -63 66.999 -102s24.5 -80.833 24.5 -125.5zM588.001 415c0 40 -13.167 72.333 -39.5 97s-62.5 37 -108.5 37h-158v-385h86v116h64c21.333 0 41.5 2.83301 60.5 8.5s35.5 14.167 49.5 25.5
s25.167 25.5 33.5 42.5s12.5 36.5 12.5 58.5zM501.001 414c0 -17.333 -5.83203 -31.5 -17.499 -42.5s-28.167 -16.5 -49.5 -16.5h-66v118h64c21.333 0 38.166 -5 50.499 -15s18.5 -24.667 18.5 -44z" />
    <glyph glyph-name="endash" unicode="&#x2013;" horiz-adv-x="528" 
d="M478 239v142h-428v-142h428z" />
    <glyph glyph-name="emdash" unicode="&#x2014;" horiz-adv-x="898" 
d="M848 239v142h-798v-142h798z" />
    <glyph glyph-name="quoteleft" unicode="&#x2018;" horiz-adv-x="286" 
d="M255 642l-13.001 63c-59.333 -1.33301 -105 -16.333 -137 -45s-48 -76 -48 -142v-135h162v160h-62c-5.33301 58.667 27.334 91.667 98.001 99z" />
    <glyph glyph-name="quoteright" unicode="&#x2019;" horiz-adv-x="286" 
d="M31 441l13.001 -63c59.333 0.666992 105 15.5 137 44.5s48 76.5 48 142.5v135h-162v-160h62c5.33301 -58.667 -27.334 -91.667 -98.001 -99z" />
    <glyph glyph-name="quotesinglbase" unicode="&#x201a;" horiz-adv-x="286" 
d="M26 -99l13.001 -63c59.333 0.666992 105 15.5 137 44.5s48 76.5 48 142.5v135h-162v-160h62c5.33301 -58.667 -27.334 -91.667 -98.001 -99z" />
    <glyph glyph-name="quotedblleft" unicode="&#x201c;" horiz-adv-x="540" 
d="M509 642l-13.001 63c-59.333 -1.33301 -105 -16.333 -137 -45s-48 -76 -48 -142v-135h162v160h-62c-5.33301 58.667 27.334 91.667 98.001 99zM254.999 642l-13.001 63c-59.333 -1.33301 -105 -16.333 -137 -45s-48 -76 -48 -142v-135h162v160h-62
c-5.33301 58.667 27.334 91.667 98.001 99z" />
    <glyph glyph-name="quotedblright" unicode="&#x201d;" horiz-adv-x="540" 
d="M285 441l13.001 -63c59.333 0.666992 105 15.5 137 44.5s48 76.5 48 142.5v135h-162v-160h62c5.33301 -58.667 -27.334 -91.667 -98.001 -99zM31.001 441l13.001 -63c59.333 0.666992 105 15.5 137 44.5s48 76.5 48 142.5v135h-162v-160h62
c5.33301 -58.667 -27.334 -91.667 -98.001 -99z" />
    <glyph glyph-name="quotedblbase" unicode="&#x201e;" horiz-adv-x="540" 
d="M280 -99l13.001 -63c59.333 0.666992 105 15.5 137 44.5s48 76.5 48 142.5v135h-162v-160h62c5.33301 -58.667 -27.334 -91.667 -98.001 -99zM26.001 -99l13.001 -63c59.333 0.666992 105 15.5 137 44.5s48 76.5 48 142.5v135h-162v-160h62
c5.33301 -58.667 -27.334 -91.667 -98.001 -99z" />
    <glyph glyph-name="dagger" unicode="&#x2020;" horiz-adv-x="410" 
d="M237 508l120 -10v83l-119 -10l13 129h-92l13 -129l-119 10v-83l120 10l-10 -270h84z" />
    <glyph glyph-name="daggerdbl" unicode="&#x2021;" horiz-adv-x="430" 
d="M367 119v83l-119 -10l9 158l-9 158l119 -10v83l-119 -10l13 129h-92l13 -129l-119 10v-83l119 10l-9 -158l9 -158l-119 10v-83l119 10l-13 -129h92l-13 129z" />
    <glyph glyph-name="bullet" unicode="&#x2022;" 
d="M399 352c0 20.667 -4 40 -12 58s-18.667 33.667 -32 47s-29 24 -47 32s-37.333 12 -58 12s-40 -4 -58 -12s-33.833 -18.667 -47.5 -32s-24.334 -29 -32.001 -47s-11.5 -37.333 -11.5 -58s3.83301 -40 11.5 -58s18.334 -33.833 32.001 -47.5s29.5 -24.334 47.5 -32.001
s37.333 -11.5 58 -11.5s40 3.83301 58 11.5s33.667 18.334 47 32.001s24 29.5 32 47.5s12 37.333 12 58z" />
    <glyph glyph-name="ellipsis" unicode="&#x2026;" horiz-adv-x="840" 
d="M778 0v156h-158v-156h158zM499 0v156h-158v-156h158zM220 0v156h-158v-156h158z" />
    <glyph glyph-name="perthousand" unicode="&#x2030;" horiz-adv-x="1240" 
d="M385 530c0 24.667 -4 47.834 -12 69.501s-19.5 40.5 -34.5 56.5s-32.833 28.667 -53.5 38s-43.667 14 -69 14s-48.5 -4.66699 -69.5 -14s-39 -22.166 -54 -38.499s-26.667 -35.5 -35 -57.5s-12.5 -45.333 -12.5 -70s4 -47.834 12 -69.501s19.5 -40.5 34.5 -56.5
s32.833 -28.667 53.5 -38s43.667 -14 69 -14s48.5 4.66699 69.5 14s39 22.166 54 38.499s26.667 35.333 35 57s12.5 45.167 12.5 70.5zM626 700l-511 -700h119l511 700h-119zM1195 172c0 24.667 -4 47.834 -12 69.501s-19.5 40.5 -34.5 56.5s-32.833 28.667 -53.5 38
s-43.667 14 -69 14s-48.5 -4.66699 -69.5 -14s-39 -22.166 -54 -38.499s-26.667 -35.5 -35 -57.5s-12.5 -45.333 -12.5 -70s4 -47.834 12 -69.501s19.5 -40.5 34.5 -56.5s32.833 -28.667 53.5 -38s43.667 -14 69 -14s48.5 4.66699 69.5 14s39 22.166 54 38.499
s26.667 35.333 35 57s12.5 45.167 12.5 70.5zM815 172c0 24.667 -4 47.834 -12 69.501s-19.5 40.5 -34.5 56.5s-32.833 28.667 -53.5 38s-43.667 14 -69 14s-48.5 -4.66699 -69.5 -14s-39 -22.166 -54 -38.499s-26.667 -35.5 -35 -57.5s-12.5 -45.333 -12.5 -70
s4 -47.834 12 -69.501s19.5 -40.5 34.5 -56.5s32.833 -28.667 53.5 -38s43.667 -14 69 -14s48.5 4.66699 69.5 14s39 22.166 54 38.499s26.667 35.333 35 57s12.5 45.167 12.5 70.5zM280 528c0 -23.333 -5.33301 -43.666 -16 -60.999s-26.667 -26 -48 -26
c-20 0 -36 8.83301 -48 26.5s-18 38.5 -18 62.5c0 23.333 5.33301 43.666 16 60.999s26.667 26 48 26c20 0 36 -8.83301 48 -26.5s18 -38.5 18 -62.5zM1090 170c0 -23.333 -5.33301 -43.666 -16 -60.999s-26.667 -26 -48 -26c-20 0 -36 8.83301 -48 26.5s-18 38.5 -18 62.5
c0 23.333 5.33301 43.666 16 60.999s26.667 26 48 26c20 0 36 -8.83301 48 -26.5s18 -38.5 18 -62.5zM710 170c0 -23.333 -5.33301 -43.666 -16 -60.999s-26.667 -26 -48 -26c-20 0 -36 8.83301 -48 26.5s-18 38.5 -18 62.5c0 23.333 5.33301 43.666 16 60.999
s26.667 26 48 26c20 0 36 -8.83301 48 -26.5s18 -38.5 18 -62.5z" />
    <glyph glyph-name="guilsinglleft" unicode="&#x2039;" horiz-adv-x="373" 
d="M209 496l-168 -224v-8l168 -224l116 58l-130 171l130 171z" />
    <glyph glyph-name="guilsinglright" unicode="&#x203a;" horiz-adv-x="373" 
d="M164 40l168 224v8l-168 224l-116 -58l130 -171l-130 -171z" />
    <glyph glyph-name="trademark" unicode="&#x2122;" horiz-adv-x="690" 
d="M587 600v-208h66v308h-72l-81 -130l-81 130h-74v-308h66v208l85 -135h6zM188 638h92v62h-254v-62h92v-246h70v246z" />
    <glyph glyph-name="fraction" unicode="&#x2215;" horiz-adv-x="480" 
d="M395 758l-466 -856h134l466 856h-134z" />
    <glyph glyph-name="radical" unicode="&#x221a;" horiz-adv-x="1066" 
d="M626 530v20.999c0 38.667 18.333 58 55 58c13.333 0 25.333 -1.16699 36 -3.5s21.667 -5.5 33 -9.5v126c-14 4.66699 -29.5 8.33398 -46.5 11.001s-37.5 4 -61.5 4c-54 0 -95.167 -13.833 -123.5 -41.5s-42.5 -71.167 -42.5 -130.5v-34h-63v-125h63v-406h152v406h121v124
h-123zM244 529.999v20.999c0 38.667 18.333 58 55 58c13.333 0 25.333 -1.16699 36 -3.5s21.667 -5.5 33 -9.5v126c-14 4.66699 -29.5 8.33398 -46.5 11.001s-37.5 4 -61.5 4c-54 0 -95.167 -13.833 -123.5 -41.5s-42.5 -71.167 -42.5 -130.5v-34h-63v-125h63v-406h152v406
h121v124h-123zM991 -0.00195312v730h-152v-730h152z" />
    <glyph glyph-name="approxequal" unicode="&#x2248;" horiz-adv-x="1066" 
d="M995 595v135h-160v-135h160zM626 530v20.999c0 38.667 18.333 58 55 58c13.333 0 25.333 -1.16699 36 -3.5s21.667 -5.5 33 -9.5v126c-14 4.66699 -29.5 8.33398 -46.5 11.001s-37.5 4 -61.5 4c-54 0 -95.167 -13.833 -123.5 -41.5s-42.5 -71.167 -42.5 -130.5v-34h-63
v-125h63v-406h152v406h121v124h-123zM244 529.999v20.999c0 38.667 18.333 58 55 58c13.333 0 25.333 -1.16699 36 -3.5s21.667 -5.5 33 -9.5v126c-14 4.66699 -29.5 8.33398 -46.5 11.001s-37.5 4 -61.5 4c-54 0 -95.167 -13.833 -123.5 -41.5s-42.5 -71.167 -42.5 -130.5
v-34h-63v-125h63v-406h152v406h121v124h-123zM991 -0.00195312v536h-152v-536h152z" />
    <glyph glyph-name="apple" unicode="&#xf8ff;" horiz-adv-x="967" 
d="M868 0v750h-767v-750h767zM859 -104l-6 34h-1l-13 -26l-13 26h-1l-6 -34h6l3 20l10 -21h2l10 21l3 -20h6zM806 -87c0 4.66699 -1.50098 8.66699 -4.50098 12s-6.83301 5 -11.5 5c-5.33301 0 -9.66602 -1.66699 -12.999 -5s-5 -7.66602 -5 -12.999
c0 -4.66699 1.5 -8.66699 4.5 -12s7.16699 -5 12.5 -5s9.5 1.66699 12.5 5s4.5 7.66602 4.5 12.999zM757.999 -96c-4 -2.66699 -7.33301 -4 -10 -4c-8.66699 0 -13 4.33301 -13 13c0 3.33301 1.16699 6.16602 3.5 8.49902s5.16602 3.5 8.49902 3.5c4 0 7 -1 9 -3l2 5
c-3.33301 2 -7 3 -11 3c-5.33301 0 -9.66602 -1.66699 -12.999 -5s-5 -7.66602 -5 -12.999c0 -11.333 6 -17 18 -17c4.66699 0 8 1 10 3zM701.999 -71h-7l-9 -14l-11 15l-6 -1l14 -19v-14h6v14zM655.999 -104v33h-6v-13h-16v13h-6v-33h6v15h16v-15h6zM611.999 -82
c0 3.33301 -1.5 6.33203 -4.5 8.99902s-9.16699 3.33398 -18.5 2.00098v-33h6v10c11.333 0 17 4 17 12zM575.999 -104.001l-16 34h-2l-15 -34h6l3 8h14l4 -8h6zM533.999 -104.001l-10 13.001c4.66699 2 7 5.33301 7 10c0 3.33301 -1.5 6.16602 -4.5 8.49902
s-9.16699 2.83301 -18.5 1.5v-33h6v11h5l8 -11h7zM490.999 -101v14.999h-15v-5h9v-7c-2.66699 -1.33301 -4.66699 -2 -6 -2c-8.66699 0 -13 4 -13 12c0 8.66699 4 13 12 13c4.66699 0 8.33398 -1.33301 11.001 -4l2 5c-4 2.66699 -8 4 -12 4
c-5.33301 0 -9.83301 -1.66699 -13.5 -5s-5.5 -7.66602 -5.5 -12.999s1.66699 -9.5 5 -12.5s7.66602 -4.5 12.999 -4.5c4.66699 0 9 1.33301 13 4zM446.999 -87.001c0 4.66699 -1.50098 8.66699 -4.50098 12s-6.83301 5 -11.5 5c-5.33301 0 -9.66602 -1.66699 -12.999 -5
s-5 -7.66602 -5 -12.999c0 -4.66699 1.5 -8.66699 4.5 -12s7.16699 -5 12.5 -5s9.5 1.66699 12.5 5s4.5 7.66602 4.5 12.999zM399.998 -82.001c0 3.33301 -1.5 6.33203 -4.5 8.99902s-9.16699 3.33398 -18.5 2.00098v-33h6v10c11.333 0 17 4 17 12zM363.998 -71.002h-7
l-9 -14l-11 15l-6 -1l14 -19v-14h6v14zM322.998 -71.002h-30v-5h12v-28h6v28h12v5zM266.998 -71.002h-6l-7 -22l-10 23h-1l-10 -23l-7 23l-6 -1l12 -34h1l10 23l11 -23h1zM210.998 -71.002h-6l-7 -22l-10 23h-1l-10 -23l-7 23l-6 -1l12 -34h1l10 23l11 -23h1z
M154.998 -71.002h-6l-7 -22l-10 23h-1l-10 -23l-7 23l-6 -1l12 -34h1l10 23l11 -23h1zM715.998 -101.002c0 2.66699 -1.33301 4 -4 4s-4 -1.33301 -4 -4s1.33301 -4 4 -4s4 1.33301 4 4zM283.998 -101.002c0 2.66699 -1.33301 4 -4 4s-4 -1.33301 -4 -4s1.33301 -4 4 -4
s4 1.33301 4 4zM558.998 685.998h-2l-2.5 4.5c-1.66699 3 -4.16699 4.5 -7.5 4.5c-2 0 -3 -1 -3 -3v-23c0 -3.33301 0.666992 -5 2 -5h3v-2h-17v2h2c2 0 3 1.66699 3 5v23c0 2 -1 3 -3 3c-3.33301 0 -5.83301 -1.5 -7.5 -4.5l-2.5 -4.5h-2l0.5 4.5
c0.333008 3 0.5 5.5 0.5 7.5c2 -0.666992 8 -1 18 -1s15.667 0.333008 17 1c0.666992 -2 1 -4.66699 1 -8v-4zM503.998 661.998h-18v2h2c2 0 3 1.66699 3 5v10h-17v-10c0 -2.66699 0.833008 -4.16699 2.5 -4.5l2.5 -0.5v-2h-17v2l2.5 0.5
c1.66699 0.333008 2.5 1.83301 2.5 4.5v21c0 3.33301 -1 5 -3 5h-2v2h17v-1v-1h-3c-1.33301 0 -2 -1.66699 -2 -5v-9h17v9c0 3.33301 -1 5 -3 5h-2v1v1h18v-2h-3c-2 0 -3 -1.66699 -3 -5v-21c0 -3.33301 1 -5 3 -5h3v-2zM438.998 663.998l-0.000976562 -2h-30l-2 11l2 1
l2.5 -4.5c1.66699 -3 4.16699 -4.5 7.5 -4.5h4c2.66699 0 4 1 4 3v11h-4c-3.33301 0 -5.16602 -1 -5.49902 -3l-0.5 -3h-2v13h2l0.5 -2.5c0.333008 -1.66699 2.16602 -2.5 5.49902 -2.5h4v10c0 2 -1.33301 3 -4 3h-4c-3.33301 0 -5.66602 -1.33301 -6.99902 -4l-2 -4l-2 1
l2 10h29v-2h-3c-1.33301 0 -2 -1.66699 -2 -5v-21c0 -3.33301 0.666992 -5 2 -5h3zM826.997 617.998h-685v6h685v-6zM695.997 539.998c0 -8 -2.66699 -13.667 -8 -17s-10.333 -5 -15 -5c-9.33301 0 -17.833 3.66699 -25.5 11s-11.5 16.333 -11.5 27c0 8 2.66699 13.667 8 17
s10.333 5 15 5c9.33301 0 17.833 -3.83301 25.5 -11.5s11.5 -16.5 11.5 -26.5zM588.997 536.998c0 -5.33301 -1.99805 -9.83496 -5.99805 -13.502s-10.333 -5.5 -19 -5.5c-10.667 0 -16 4.33301 -16 13c0 6.66699 3 10 9 10c4.66699 0 7 -1.66699 7 -5s-1.33301 -5 -4 -5
c-1.33301 0 -2.33301 0.333008 -3 1s-1.33398 1 -2.00098 1c-2 0 -3 -1 -3 -3c0 -6 4 -9 12 -9s12 4.66699 12 14c0 6.66699 -2 11.667 -6 15c-3.33301 -3.33301 -7 -5 -11 -5c-5.33301 0 -8 2 -8 6c0 5.33301 5.33301 7.33301 16 6c1.33301 1.33301 2 3.33301 2 6
c0 8 -3.33301 12 -10 12c-4.66699 0 -7 -1.66699 -7 -5c0 -1.33301 0.5 -2.16602 1.5 -2.49902s1.5 -1.5 1.5 -3.5s-1.33301 -3 -4 -3c-3.33301 0 -5 2 -5 6c0 7.33301 4.33301 11 13 11c7.33301 0 12.666 -1.66699 15.999 -5s5 -6.66602 5 -9.99902c0 -4 -1.66699 -7 -5 -9
c9.33301 -3.33301 14 -9 14 -17zM294.999 536.996c0 -5.33301 -1.99805 -9.83496 -5.99805 -13.502s-10.333 -5.5 -19 -5.5c-10.667 0 -16 4.33301 -16 13c0 6.66699 3 10 9 10c4.66699 0 7 -1.66699 7 -5s-1.33301 -5 -4 -5c-1.33301 0 -2.33301 0.333008 -3 1
s-1.33398 1 -2.00098 1c-2 0 -3 -1 -3 -3c0 -6 4 -9 12 -9s12 4.66699 12 14c0 6.66699 -2 11.667 -6 15c-3.33301 -3.33301 -7 -5 -11 -5c-5.33301 0 -8 2 -8 6c0 5.33301 5.33301 7.33301 16 6c1.33301 1.33301 2 3.33301 2 6c0 8 -3.33301 12 -10 12
c-4.66699 0 -7 -1.66699 -7 -5c0 -1.33301 0.5 -2.16602 1.5 -2.49902s1.5 -1.5 1.5 -3.5s-1.33301 -3 -4 -3c-3.33301 0 -5 2 -5 6c0 7.33301 4.33301 11 13 11c7.33301 0 12.666 -1.66699 15.999 -5s5 -6.66602 5 -9.99902c0 -4 -1.66699 -7 -5 -9
c9.33301 -3.33301 14 -9 14 -17zM820.001 521.994l0.999023 -3h-29l-1 3l4.5 0.5c3 0.333008 3.83301 2.83301 2.5 7.5l-3 16h-24l3 -16c1.33301 -4.66699 3.33301 -7.16699 6 -7.5l4 -0.5l1 -3h-29l-1 3l4.5 0.5c3 0.333008 3.83301 2.83301 2.5 7.5l-7 35
c-1.33301 4.66699 -3.33301 7.16699 -6 7.5l-4 0.5l-1 3h29l1 -3l-4.5 -0.5c-3 -0.333008 -3.83301 -2.83301 -2.5 -7.5l3 -15h24l-3 15c-1.33301 4.66699 -3.16602 7.16699 -5.49902 7.5l-3.5 0.5l-1 3h28l1 -3l-4.5 -0.5c-3 -0.333008 -3.83301 -2.83301 -2.5 -7.5l7 -35
c1.33301 -4.66699 3.33301 -7.16699 6 -7.5zM498 518.994h-29l-1 3l4.5 0.5c3 0.333008 3.83301 2.83301 2.5 7.5l-3 17h-4c-4.66699 0 -7.16699 -1.83301 -7.5 -5.5l-0.5 -5.5h-3l-5 23h3l2.5 -4.5c1.66699 -3 4.83398 -4.5 9.50098 -4.5h4l-3 16
c-0.666992 4 -2.66699 6 -6 6h-4c-7.33301 0 -11.333 -2.16699 -12 -6.5l-1 -6.5h-4l0.5 7c0.333008 4.66699 0.166016 8 -0.500977 10h45l1 -3l-4.5 -0.5c-3 -0.333008 -3.83301 -2.83301 -2.5 -7.5l7 -35c1.33301 -4.66699 3.33301 -7.16699 6 -7.5l4 -0.5zM202 521.994
l1.00098 -3.00098h-29l-1 3l4.5 0.5c3 0.333008 3.83301 2.83301 2.5 7.5l-3 15c-2.66699 0 -4.33398 -1 -5.00098 -3l-12 -23h-19l-1 3l5 0.5c3.33301 0.333008 6.33301 2.83301 9 7.5l9 16c-5.33301 0.666992 -9.83301 2.33398 -13.5 5.00098s-5.5 6 -5.5 10
c0 10 6.66699 15 20 15h27l1 -3l-4.5 -0.5c-3 -0.333008 -3.83301 -2.83301 -2.5 -7.5l7 -35c1.33301 -4.66699 3.33301 -7.16699 6 -7.5zM400.001 520.993c0 -2 -1.33203 -3.00098 -3.99902 -3.00098c-6 0 -10 2.33301 -12 7c-5.33301 0 -8.66602 -2.16699 -9.99902 -6.5
s-6.33301 -6.5 -15 -6.5c-3.33301 0 -6.66602 1.16699 -9.99902 3.5s-5 5.16602 -5 8.49902c0 4.66699 1.66699 7 5 7s5 -1.66699 5 -5c0 -1.33301 -0.333008 -2.16602 -1 -2.49902s-1 -1.16602 -1 -2.49902c0 -2.66699 1.66699 -4 5 -4s6.16602 2.16699 8.49902 6.5
s7.16602 6.5 14.499 6.5c-4 4 -6.83301 8.5 -8.5 13.5s-2.83398 9.83301 -3.50098 14.5s-1.5 8.66699 -2.5 12s-3.16699 5 -6.5 5s-5 -2 -5 -6s-1.33301 -6 -4 -6c-3.33301 0 -5 1.66699 -5 5c0 2 1.33301 4.16699 4 6.5s5.66699 3.5 9 3.5c8 0 13.5 -2.16699 16.5 -6.5
s5 -9.33301 6 -15s1.66699 -11 2 -16s1.83301 -8.5 4.5 -10.5c4.66699 -0.666992 8 -2 10 -4s3 -3.66699 3 -5zM827.002 474.992h-685v6h685v-6zM827.002 377.992h-36v28h-11v-65h14v-33h-81v33h14v65h-11v-28h-36v62h147v-62zM648.002 405.992h-14l-37 -45v-20h15v-33h-81
v33h14v19l-37 46h-12v34h62v-34h-10l15 -23l15 23h-11v34h81v-34zM458.002 307.992h-81v33h15v19h-30c-14.667 0 -26.167 3.83301 -34.5 11.5s-12.5 17.167 -12.5 28.5s4.16699 20.833 12.5 28.5s19.833 11.5 34.5 11.5h96v-34h-14v-65h14v-33zM283.002 307.992h-141v61h41
v-28h33v21h-24v24h24v20h-33v-28h-41v62h141v-34h-14v-65h14v-33zM827.002 270.992h-685v6h685v-6zM728.002 191.992c0 -8 -2.66699 -13.667 -8 -17s-10.333 -5 -15 -5c-9.33301 0 -17.833 3.66699 -25.5 11s-11.5 16.333 -11.5 27c0 8 2.66699 13.667 8 17s10.333 5 15 5
c9.33301 0 17.833 -3.83301 25.5 -11.5s11.5 -16.5 11.5 -26.5zM203.002 216.992l-1.99609 -2.00293l-4.5 4.5c-1.66699 1.66699 -4.16699 2.5 -7.5 2.5c-6 0 -9 -4.33301 -9 -13c0 -5.33301 1.66699 -13.666 5 -24.999c1.33301 -5.33301 3.33301 -8.16602 6 -8.49902
l4 -0.5l1 -4h-28l-1 4l4.5 1c3 0.666992 3.5 5.33398 1.5 14.001c-2 8 -4.83301 15.5 -8.5 22.5s-8.83398 10.5 -15.501 10.5c-5.33301 0 -8 -2 -8 -6l-3 1c0 4 1.16699 7 3.5 9s5.16602 3 8.49902 3c5.33301 0 9.66602 -2.16699 12.999 -6.5s6 -9.83301 8 -16.5
c-0.666992 15.333 4 23 14 23c5.33301 0 9.16602 -1.33301 11.499 -4s4.5 -5.66699 6.5 -9zM823.006 170.989h-29l-1 3l4.5 0.5c3 0.333008 3.83301 2.83301 2.5 7.5l-3 17h-4c-4.66699 0 -7.16699 -1.83301 -7.5 -5.5l-0.5 -5.5h-3l-5 23h3l2.5 -4.5
c1.66699 -3 4.83398 -4.5 9.50098 -4.5h4l-3 16c-0.666992 4 -2.66699 6 -6 6h-4c-7.33301 0 -11.333 -2.16699 -12 -6.5l-1 -6.5h-4l0.5 7c0.333008 4.66699 0.166016 8 -0.500977 10h45l1 -3l-4.5 -0.5c-3 -0.333008 -3.83301 -2.83301 -2.5 -7.5l7 -35
c1.33301 -4.66699 3.33301 -7.16699 6 -7.5l4 -0.5zM621.006 224.989l-5 -0.5c-3.33301 -0.333008 -4.33301 -3.16602 -3 -8.49902l5 -22c1.33301 -5.33301 1.33301 -10.666 0 -15.999s-7.66602 -8 -18.999 -8c-9.33301 0 -16 3.16699 -20 9.5s-6.66699 12.166 -8 17.499
l-4 19c-1.33301 5.33301 -3.5 8.16602 -6.5 8.49902l-4.5 0.5l-1 3h24v-3l-4.5 -0.5c-3 -0.333008 -3.83301 -3.16602 -2.5 -8.49902l4 -19c1.33301 -6 3.66602 -11.167 6.99902 -15.5s7.66602 -6.5 12.999 -6.5c7.33301 0 11.333 1.66699 12 5
s0.333984 8.33301 -0.999023 15l-5 21c-1.33301 5.33301 -3.33301 8.16602 -6 8.49902l-4 0.5l-1 3h29zM522.006 173.989l0.999023 -3.00098h-21l-1 3l4 1c2.66699 0.666992 3.33398 3.66699 2.00098 9l-6 30l-30 -44l-3 1l-8 45
c-1.33301 4.66699 -3.16602 7.33398 -5.49902 8.00098l-3.5 1l-1 3h21l1 -3l-4.5 -1c-3 -0.666992 -3.83301 -3.33398 -2.5 -8.00098l5 -30l29 42h14l1 -3l-5 -0.5c-3.33301 -0.333008 -4.33301 -3.16602 -3 -8.49902l7 -32c1.33301 -5.33301 3.16602 -8.33301 5.49902 -9z
M414.005 170.988l-32 -0.000976562c-8.66699 0 -16.667 3.16699 -24 9.5s-11 14.833 -11 25.5c0 7.33301 2.66699 12.833 8 16.5s11 5.5 17 5.5h30l1 -3c-7.33301 -0.666992 -10 -4 -8 -10l8 -31c1.33301 -5.33301 3.33301 -8.16602 6 -8.49902l4 -0.5zM306.005 173.987
l1.00098 -3.00098h-29l-1 3l4.5 0.5c3 0.333008 3.83301 2.83301 2.5 7.5l-3 15c-2.66699 0 -4.33398 -1 -5.00098 -3l-12 -23h-19l-1 3l5 0.5c3.33301 0.333008 6.33301 2.83301 9 7.5l9 16c-5.33301 0.666992 -9.83301 2.33398 -13.5 5.00098s-5.5 6 -5.5 10
c0 10 6.66699 15 20 15h27l1 -3l-4.5 -0.5c-3 -0.333008 -3.83301 -2.83301 -2.5 -7.5l7 -35c1.33301 -4.66699 3.33301 -7.16699 6 -7.5zM827.006 126.986h-685v6h685v-6zM694.006 45.9863l-14 -0.000976562v2l2.5 1c1.66699 0.666992 2.5 2 2.5 4v20l-25 -28h-3v28
c0 2.66699 -1 4.33398 -3 5.00098l-3 1v2h15v-2l-3 -1c-2 -0.666992 -3 -2.33398 -3 -5.00098v-18l24 26h10v-2l-3 -2c-2 -1.33301 -3 -2.66602 -3 -3.99902v-20c0 -2 1 -3.33301 3 -4l3 -1v-2zM633.006 47.9854l-0.000976562 -2h-30l-2 11l2 1l2.5 -4.5
c1.66699 -3 4.16699 -4.5 7.5 -4.5h4c2.66699 0 4 1 4 3v11h-4c-3.33301 0 -5.16602 -1 -5.49902 -3l-0.5 -3h-2v13h2l0.5 -2.5c0.333008 -1.66699 2.16602 -2.5 5.49902 -2.5h4v10c0 2 -1.33301 3 -4 3h-4c-3.33301 0 -5.66602 -1.33301 -6.99902 -4l-2 -4l-2 1l2 10h29v-2
h-3c-1.33301 0 -2 -1.66699 -2 -5v-21c0 -3.33301 0.666992 -5 2 -5h3zM583.005 80.9854l-0.00195312 -1.99902l-2.5 -0.5c-1.66699 -0.333008 -3.16699 -2.16602 -4.5 -5.49902l-12 -27h-1l-9 16l-8 -16c0 -0.666992 -0.166992 -0.833984 -0.5 -0.500977l-0.5 0.5h-1
l-13 27c-1.33301 2.66699 -2.66602 4.33398 -3.99902 5.00098l-2 1v2h13v-2l-2 -1c-1.33301 -0.666992 -1.33301 -2.33398 0 -5.00098l8 -18l7 13l-3 5c-2 3.33301 -3.66699 5.16602 -5 5.49902l-2 0.5l-1 2h26v-2l-2 -1.5c-1.33301 -1 -2.66602 -2.5 -3.99902 -4.5l-4 -8
l5 -10l9 19c1.33301 2 1.33301 3.33301 0 4l-2 1v2h15zM480.003 78.9863l-2.49902 -0.5c-1.66699 -0.333008 -3.16699 -1.83301 -4.5 -4.5l-8 -12v-8c0 -3.33301 0.833008 -5.16602 2.5 -5.49902l2.5 -0.5v-2h-17v2l2.5 0.5c1.66699 0.333008 2.5 2.16602 2.5 5.49902v8
l-8 12c-1.33301 2.66699 -3 4.16699 -5 4.5l-3 0.5v2h15v-2l-2.5 -0.5c-1.66699 -0.333008 -1.83398 -1.83301 -0.500977 -4.5l6 -9l6 9c1.33301 2.66699 1.5 4.16699 0.5 4.5l-1.5 0.5v2h15v-2zM425.004 63.9863c0 -5.33301 -1.66699 -9.83301 -5 -13.5
s-8.33301 -5.5 -15 -5.5s-11.667 1.83301 -15 5.5s-5 8.16699 -5 13.5s1.66699 9.66602 5 12.999s8.33301 5 15 5s11.667 -1.66699 15 -5s5 -7.66602 5 -12.999zM364.004 45.9863l-17 -0.000976562v2l2.5 0.5c1.66699 0.333008 2.5 1.83301 2.5 4.5v9
c-2.66699 0 -5 -1.33301 -7 -4l-7 -12h-11v2l2.5 0.5c1.66699 0.333008 3.5 1.83301 5.5 4.5l7 10c-6 2.66699 -9 5.66699 -9 9c0 6 4.33301 9 13 9h18v-2l-2.5 -0.5c-1.66699 -0.333008 -2.5 -2.16602 -2.5 -5.49902v-20c0 -2.66699 0.833008 -4.16699 2.5 -4.5l2.5 -0.5
v-2zM309.004 45.9854l-18 0.00195312v2l3 0.5c2 0.333008 3 2.16602 3 5.49902v9c-1.33301 0 -2.66602 -0.666992 -3.99902 -2l-8 -8c-2 -2.66699 -2.16699 -4.16699 -0.5 -4.5l2.5 -0.5v-2h-17v2l2.5 1.5c1.66699 1 3.16699 2.16699 4.5 3.5l13 13l-10 9
c-1.33301 1.33301 -3 2.33301 -5 3l-3 1v2h14v-2l-1.5 -1c-1 -0.666992 -0.833008 -1.66699 0.5 -3l8 -8c1.33301 -1.33301 2.66602 -2 3.99902 -2v9c0 2.66699 -1 4.16699 -3 4.5l-3 0.5v2h18v-2l-3 -0.5c-2 -0.333008 -3 -1.83301 -3 -4.5v-20
c0 -2.66699 1 -4.33398 3 -5.00098l3 -1v-2zM606.004 -83.0127c0 -4 -3.66699 -6.00098 -11 -6.00098v13c7.33301 0.666992 11 -1.66602 11 -6.99902zM525.004 -82.0137c0 -4.66699 -3.66699 -6.66699 -11 -6v12c7.33301 1.33301 11 -0.666992 11 -6zM394.004 -83.0137
c0 -4 -3.66699 -6.00098 -11 -6.00098v13c7.33301 0.666992 11 -1.66602 11 -6.99902zM564.004 -92.0146h-10l5 12zM800.004 -88.0146c0 -8 -3.66699 -12 -11 -12s-11 4.33301 -11 13c0 8 3.66699 12 11 12s11 -4.33301 11 -13zM441.004 -88.0146c0 -8 -3.66699 -12 -11 -12
s-11 4.33301 -11 13c0 8 3.66699 12 11 12s11 -4.33301 11 -13zM176.004 547.985l-2.99902 18.999c-0.666992 3.33301 -3.66699 5 -9 5s-8 -3 -8 -9c0 -3.33301 1.16699 -6.66602 3.5 -9.99902s6.16602 -5 11.499 -5h5zM566.005 552.984c-1.33301 0.666992 -3.66699 1 -7 1
c-2.66699 0 -4 -1 -4 -3c0 -1.33301 1.33301 -2 4 -2s5 1.33301 7 4zM272.004 552.984c-1.33301 0.666992 -3.66699 1 -7 1c-2.66699 0 -4 -1 -4 -3c0 -1.33301 1.33301 -2 4 -2s5 1.33301 7 4zM684.003 534.984c0 10.667 -2.66699 19.833 -8 27.5s-11 11.5 -17 11.5
c-7.33301 0 -11 -4.66699 -11 -14c0 -10 2.66699 -18.833 8 -26.5s11 -11.5 17 -11.5c7.33301 0 11 4.33301 11 13zM392.003 383.983v22h-11c-8.66699 0 -13 -3.66699 -13 -11s4.33301 -11 13 -11h11zM280.003 199.983l-2.99902 18.999c-0.666992 3.33301 -3.66699 5 -9 5
s-8 -3 -8 -9c0 -3.33301 1.16699 -6.66602 3.5 -9.99902s6.16602 -5 11.499 -5h5zM716.004 186.982c0 10.667 -2.66699 19.833 -8 27.5s-11 11.5 -17 11.5c-7.33301 0 -11 -4.66699 -11 -14c0 -10 2.66699 -18.833 8 -26.5s11 -11.5 17 -11.5c7.33301 0 11 4.33301 11 13z
M393.004 181.981l-9.00098 35.001c-1.33301 3.33301 -2.16602 5.16602 -2.49902 5.49902s-1.5 0.833008 -3.5 1.5h-6c-9.33301 0 -14 -5.66699 -14 -17c0 -8 2.5 -15.333 7.5 -22s11.167 -10 18.5 -10h5c2.66699 0 4 2.33301 4 7zM553.003 78.9824
c-3.33301 0 -3.33301 -3 0 -9c2.66699 6 2.66699 9 0 9zM352.003 63.9824v10c0 2.66699 -1.33301 4 -4 4c-4.66699 0 -7 -2 -7 -6c0 -5.33301 2.66699 -8 8 -8h3zM417.003 63.9824c0 10.667 -4.00098 16 -12.001 16s-12 -5.33301 -12 -16c0 -4.66699 1 -8.66699 3 -12
s5 -5 9 -5c4.66699 0 7.83398 1.66699 9.50098 5s2.5 7.33301 2.5 12z" />
    <glyph glyph-name="fi" unicode="&#xfb01;" horiz-adv-x="684" 
d="M613 595v135h-160v-135h160zM244 530v20.999c0 38.667 18.333 58 55 58c13.333 0 25.333 -1.16699 36 -3.5s21.667 -5.5 33 -9.5v126c-14 4.66699 -29.5 8.33398 -46.5 11.001s-37.5 4 -61.5 4c-54 0 -95.167 -13.833 -123.5 -41.5s-42.5 -71.167 -42.5 -130.5v-34h-63
v-125h63v-406h152v406h121v124h-123zM609 -0.000976562v536h-152v-536h152z" />
    <glyph glyph-name="fl" unicode="&#xfb02;" horiz-adv-x="684" 
d="M244 530v20.999c0 38.667 18.333 58 55 58c13.333 0 25.333 -1.16699 36 -3.5s21.667 -5.5 33 -9.5v126c-14 4.66699 -29.5 8.33398 -46.5 11.001s-37.5 4 -61.5 4c-54 0 -95.167 -13.833 -123.5 -41.5s-42.5 -71.167 -42.5 -130.5v-34h-63v-125h63v-406h152v406h121v124
h-123zM609 -0.000976562v730h-152v-730h152z" />
    <glyph glyph-name="NUL" horiz-adv-x="0" 
 />
    <glyph glyph-name="nonmarkingreturn" horiz-adv-x="300" 
 />
  </font>
</defs>
</svg>
